SplineFontDB: 3.0
FontName: BetecknaLowerCaseItalic
FullName: BetecknaLowerCase
FamilyName: BetecknaLowerCase
Weight: Medium
Copyright: Drawn by Johan Mattsson
Version: 
ItalicAngle: 0
UnderlinePosition: -200
UnderlineWidth: 50
Ascent: 800
Descent: 200
LayerCount: 2
Layer: 0 1 "Back"  1
Layer: 1 1 "Fore"  0
XUID: [1021 880 1988980000 3066022]
FSType: 0
OS2Version: 3
OS2_WeightWidthSlopeOnly: 0
OS2_UseTypoMetrics: 1
CreationTime: 1176121501
ModificationTime: 1406153154
PfmFamily: 17
TTFWeight: 500
TTFWidth: 5
LineGap: 90
VLineGap: 0
Panose: 2 0 6 3 0 0 0 0 0 0
OS2TypoAscent: 0
OS2TypoAOffset: 1
OS2TypoDescent: 0
OS2TypoDOffset: 1
OS2TypoLinegap: 0
OS2WinAscent: 0
OS2WinAOffset: 1
OS2WinDescent: 0
OS2WinDOffset: 1
HheadAscent: 0
HheadAOffset: 1
HheadDescent: 0
HheadDOffset: 1
OS2SubXSize: 650
OS2SubYSize: 699
OS2SubXOff: 0
OS2SubYOff: 479
OS2SupXSize: 650
OS2SupYSize: 699
OS2SupXOff: 0
OS2SupYOff: 0
OS2StrikeYSize: 49
OS2StrikeYPos: 258
OS2Vendor: 'PfEd'
OS2CodePages: 00000010.01140000
OS2UnicodeRanges: 800000cf.40000000.00000000.00000000
Lookup: 4 0 1 "'liga' Standard Ligatures in Latin lookup 0"  {"'liga' Standard Ligatures in Latin lookup 0 subtable"  } ['liga' ('latn' <'dflt' > ) ]
Lookup: 258 0 0 "'kern' Horizontal Kerning in Latin lookup 0"  {"'kern' Horizontal Kerning in Latin lookup 0 subtable"  } ['kern' ('latn' <'dflt' > ) ]
DEI: 91125
ShortTable: maxp 16
  1
  0
  182
  92
  5
  70
  4
  2
  0
  1
  1
  0
  64
  0
  2
  1
EndShort
LangName: 1033 "" "" "" "FontForge 2.0 : BetecknaLowerCase : 4-10-2008" 
GaspTable: 1 65535 2 0
Encoding: UnicodeBmp
UnicodeInterp: none
NameList: Adobe Glyph List
DisplaySize: -72
AntiAlias: 1
FitToEm: 1
Grid
-1000 142 m 0
 2000 142 l 0
EndSplineSet
BeginChars: 65539 190

StartChar: .notdef
Encoding: 65536 -1 0
Width: 500
Flags: W
LayerCount: 2
Fore
SplineSet
3.00879 0 m 1,0,-1
 96.9912 533 l 1,1,-1
 496.991 533 l 1,2,-1
 403.009 0 l 1,3,-1
 3.00879 0 l 1,0,-1
61.8252 50 m 1,4,-1
 361.825 50 l 1,5,-1
 438.175 483 l 1,6,-1
 138.175 483 l 1,7,-1
 61.8252 50 l 1,4,-1
EndSplineSet
EndChar

StartChar: exclam
Encoding: 33 33 4
Width: 238
GlyphClass: 2
Flags: W
LayerCount: 2
Fore
SplineSet
135.098 693 m 5,0,-1
 225.098 693 l 5,1,-1
 142.337 252 l 5,2,-1
 51.3369 252 l 5,3,-1
 135.098 693 l 5,0,-1
3.48242 60 m 4,4,5
 8.24316 87 8.24316 87 28.9766 102.5 c 132,-1,6
 49.709 118 49.709 118 71.7979 118.5 c 132,-1,7
 93.8857 119 93.8857 119 109.24 104 c 132,-1,8
 124.596 89 124.596 89 119.835 62 c 4,9,10
 114.722 33 114.722 33 93.8125 16.5 c 132,-1,11
 72.9023 0 72.9023 0 50.9023 0 c 132,-1,12
 28.9023 0 28.9023 0 13.7236 16 c 132,-1,13
 -1.45508 32 -1.45508 32 3.48242 60 c 4,4,5
EndSplineSet
EndChar

StartChar: quotedbl
Encoding: 34 34 5
Width: 340
GlyphClass: 2
Flags: W
LayerCount: 2
Fore
SplineSet
230.586 558 m 1,0,1
 229.879 571 229.879 571 216.753 627 c 128,-1,2
 203.627 683 203.627 683 207.448 699 c 0,3,4
 212.033 725 212.033 725 232.178 740 c 128,-1,5
 252.322 755 252.322 755 273.911 755.5 c 128,-1,6
 295.499 756 295.499 756 310.766 740.5 c 128,-1,7
 326.033 725 326.033 725 320.92 696 c 1,8,9
 312.688 672 312.688 672 299.632 649 c 128,-1,10
 286.576 626 286.576 626 278.049 614.5 c 128,-1,11
 269.521 603 269.521 603 251.994 583 c 128,-1,12
 234.468 563 234.468 563 230.586 558 c 1,0,1
56.5859 558 m 1,13,14
 55.8789 571 55.8789 571 42.7529 627 c 128,-1,15
 29.627 683 29.627 683 33.4482 699 c 0,16,17
 38.0332 725 38.0332 725 58.1777 740 c 128,-1,18
 78.3223 755 78.3223 755 99.9111 755.5 c 128,-1,19
 121.499 756 121.499 756 136.766 740.5 c 128,-1,20
 152.033 725 152.033 725 146.92 696 c 1,21,22
 138.688 672 138.688 672 125.632 649 c 128,-1,23
 112.576 626 112.576 626 104.049 614.5 c 128,-1,24
 95.5215 603 95.5215 603 77.9941 583 c 128,-1,25
 60.4678 563 60.4678 563 56.5859 558 c 1,13,14
EndSplineSet
EndChar

StartChar: numbersign
Encoding: 35 35 6
Width: 455
GlyphClass: 2
Flags: W
LayerCount: 2
Fore
SplineSet
153.49 620 m 1,0,-1
 230.49 620 l 1,1,-1
 205.804 480 l 1,2,-1
 295.804 480 l 1,3,-1
 320.49 620 l 1,4,-1
 398.49 620 l 1,5,-1
 373.804 480 l 1,6,-1
 431.804 480 l 1,7,-1
 415.759 389 l 1,8,-1
 357.759 389 l 1,9,-1
 343.123 306 l 1,10,-1
 401.123 306 l 1,11,-1
 385.783 219 l 1,12,-1
 327.783 219 l 1,13,-1
 301.51 70 l 1,14,-1
 223.51 70 l 1,15,-1
 249.783 219 l 1,16,-1
 159.783 219 l 1,17,-1
 133.51 70 l 1,18,-1
 56.5098 70 l 1,19,-1
 82.7832 219 l 1,20,-1
 24.959 220 l 1,21,-1
 40.123 306 l 1,22,-1
 98.123 306 l 1,23,-1
 112.935 390 l 1,24,-1
 54.9346 390 l 1,25,-1
 70.9805 481 l 1,26,-1
 128.804 480 l 1,27,-1
 153.49 620 l 1,0,-1
189.935 390 m 1,28,-1
 175.123 306 l 1,29,-1
 265.123 306 l 1,30,-1
 279.759 389 l 1,31,-1
 189.935 390 l 1,28,-1
EndSplineSet
EndChar

StartChar: dollar
Encoding: 36 36 7
Width: 733
GlyphClass: 2
Flags: W
LayerCount: 2
Fore
SplineSet
285.461 28.0088 m 5,23,24
 281.459 28 l 0,28,29
 246.636 29 246.636 29 210.397 47.5 c 128,-1,30
 174.16 66 174.16 66 157.305 81 c 128,-1,31
 140.449 96 140.449 96 126.095 111 c 1,32,-1
 178.261 180 l 1,33,34
 198.206 157 198.206 157 212.502 144.5 c 128,-1,35
 226.798 132 226.798 132 253.182 120 c 128,-1,36
 279.565 108 279.565 108 311.565 108 c 0,37,38
 357.565 108 357.565 108 378.417 118.5 c 0,39,40
 402.589 130.672 402.589 130.672 436.027 173 c 0,40,41
 470.785 217 470.785 217 458.955 260.5 c 0,42,43
 448.053 300.592 448.053 300.592 402.123 321 c 0,43,44
 339.889 348.653 339.889 348.653 336.236 350 c 0,45,46
 280.714 370.484 280.714 370.484 255.024 397 c 0,47,48
 224.99 428 224.99 428 217.75 463.5 c 128,-1,48
 210.51 499 210.51 499 220.21 537 c 128,-1,49
 229.91 575 229.91 575 254.376 606 c 128,-1,50
 278.843 637 278.843 637 317.546 658 c 128,-1,51
 356.248 679 356.248 679 401.777 682 c 1,52,-1
 400.768 750 l 1,0,-1
 475.768 750 l 1,1,-1
 451.777 682 l 1,2,3
 518.072 678 518.072 678 558.371 640 c 1,4,-1
 506.439 578 l 1,5,6
 467.647 618.753 467.647 618.753 396.082 610 c 0,7,8
 363.376 606 363.376 606 337.997 584 c 128,-1,9
 312.618 562 312.618 562 304.27 534.5 c 128,-1,10
 295.92 507 295.92 507 312.63 477 c 0,11,12
 330.757 444.457 330.757 444.457 373.167 429 c 2,12,-1
 441.759 404 l 2,13,14
 467.979 394.444 467.979 394.444 495.175 369.5 c 0,15,16
 519.708 347 519.708 347 536.213 313 c 128,-1,16
 552.718 279 552.718 279 547.812 237 c 0,17,18
 542.495 191.479 542.495 191.479 512.737 143 c 0,18,19
 453.81 47 453.81 47 345.988 31 c 1,20,-1
 343.232 -30 l 1,21,-1
 268.232 -30 l 1,22,-1
 285.461 28.0088 l 5,23,24
EndSplineSet
EndChar

StartChar: percent
Encoding: 37 37 8
Width: 560
GlyphClass: 2
Flags: W
LayerCount: 2
Fore
SplineSet
135.426 473 m 0,0,1
 130.665 446 130.665 446 149.638 434.5 c 128,-1,2
 168.61 423 168.61 423 191.138 434.5 c 128,-1,3
 213.665 446 213.665 446 218.603 474 c 0,4,5
 222.129 494 222.129 494 210.98 504.5 c 128,-1,6
 199.832 515 199.832 515 184.332 515 c 128,-1,7
 168.832 515 168.832 515 153.805 503.5 c 128,-1,8
 138.776 492 138.776 492 135.426 473 c 0,0,1
68.25 472 m 0,9,10
 74.2451 506 74.2451 506 94.4766 530 c 128,-1,11
 114.709 554 114.709 554 140.884 563.5 c 128,-1,12
 167.059 573 167.059 573 195.383 572 c 128,-1,13
 223.706 571 223.706 571 246.091 559 c 128,-1,14
 268.475 547 268.475 547 280.242 523 c 128,-1,15
 292.011 499 292.011 499 286.721 469 c 0,16,17
 281.078 437 281.078 437 260.67 412 c 128,-1,18
 240.262 387 240.262 387 213.734 375.5 c 128,-1,19
 187.207 364 187.207 364 158.618 363.5 c 128,-1,20
 130.03 363 130.03 363 107.47 374 c 128,-1,21
 84.9092 385 84.9092 385 73.4062 410.5 c 128,-1,22
 61.9023 436 61.9023 436 68.25 472 c 0,9,10
344.412 161 m 0,23,24
 339.651 134 339.651 134 358.712 123 c 128,-1,25
 377.772 112 377.772 112 400.3 123.5 c 128,-1,26
 422.828 135 422.828 135 427.589 162 c 0,27,28
 432.173 188 432.173 188 413.524 198.5 c 128,-1,29
 394.876 209 394.876 209 371.937 198 c 128,-1,30
 348.997 187 348.997 187 344.412 161 c 0,23,24
277.236 160 m 0,31,32
 283.407 195 283.407 195 304.14 219 c 128,-1,33
 324.871 243 324.871 243 350.546 252.5 c 128,-1,34
 376.222 262 376.222 262 404.457 260.5 c 128,-1,35
 432.692 259 432.692 259 455.076 247 c 128,-1,36
 477.46 235 477.46 235 489.816 211.5 c 128,-1,37
 502.173 188 502.173 188 496.707 157 c 0,38,39
 491.064 125 491.064 125 470.244 100.5 c 128,-1,40
 449.425 76 449.425 76 422.809 64 c 128,-1,41
 396.192 52 396.192 52 367.604 51.5 c 128,-1,42
 339.017 51 339.017 51 316.956 62 c 128,-1,43
 294.896 73 294.896 73 282.892 98.5 c 128,-1,44
 270.888 124 270.888 124 277.236 160 c 0,31,32
505.591 559 m 1,45,-1
 552.188 500 l 1,46,-1
 40.1924 52 l 1,47,-1
 -6.4043 111 l 1,48,-1
 505.591 559 l 1,45,-1
EndSplineSet
EndChar

StartChar: ampersand
Encoding: 38 38 9
Width: 754
GlyphClass: 2
Flags: W
LayerCount: 2
Fore
SplineSet
317.007 410 m 2,0,-1
 489.862 188 l 1,1,2
 541.792 267 541.792 267 550.722 346 c 1,3,-1
 633.722 346 l 1,4,5
 607.446 214 607.446 214 538.753 125 c 1,6,-1
 634.713 0 l 1,7,-1
 516.713 0 l 1,8,-1
 471.763 57 l 1,9,10
 386.949 -10 386.949 -10 264.833 -22 c 0,11,12
 212.128 -26 212.128 -26 162.214 -8.5 c 128,-1,13
 112.3 9 112.3 9 76.7051 51 c 128,-1,14
 41.1104 93 41.1104 93 35.1611 150 c 0,15,16
 35.1562 184 35.1562 184 40.1816 212.5 c 128,-1,17
 45.207 241 45.207 241 60.1445 269 c 128,-1,18
 75.0811 297 75.0811 297 91.3721 318.5 c 128,-1,19
 107.664 340 107.664 340 129.278 360.5 c 128,-1,20
 150.893 381 150.893 381 168.861 395 c 128,-1,21
 186.83 409 186.83 409 204.946 421 c 1,22,23
 191.176 462 191.176 462 194.964 500.5 c 128,-1,24
 198.753 539 198.753 539 215.866 568 c 128,-1,25
 232.979 597 232.979 597 251.418 616.5 c 128,-1,26
 269.856 636 269.856 636 289.325 650 c 0,27,28
 329.086 677 329.086 677 385.556 682.5 c 128,-1,29
 442.025 688 442.025 688 487.116 671.5 c 128,-1,30
 532.207 655 532.207 655 541.74 624 c 1,31,-1
 477.571 572 l 1,32,33
 461.214 604 461.214 604 406.331 607.5 c 128,-1,34
 351.448 611 351.448 611 314.629 578 c 0,35,36
 240.758 505 240.758 505 317.007 410 c 2,0,-1
240.309 355 m 1,37,38
 186.432 316 186.432 316 152.792 267 c 128,-1,39
 119.151 218 119.151 218 126.688 170 c 0,40,41
 132.812 131 132.812 131 164.286 102.5 c 128,-1,42
 195.761 74 195.761 74 230.321 63 c 128,-1,43
 264.882 52 264.882 52 291.41 55 c 0,44,45
 364.645 62 364.645 62 427.166 116 c 1,46,-1
 240.309 355 l 1,37,38
EndSplineSet
EndChar

StartChar: quotesingle
Encoding: 39 39 10
Width: 154
GlyphClass: 2
Flags: W
LayerCount: 2
Fore
SplineSet
56.4502 558 m 1,0,1
 16.7324 639 16.7324 639 27.3125 699 c 0,2,3
 31.8965 725 31.8965 725 52.1299 740.5 c 128,-1,4
 72.3623 756 72.3623 756 93.5391 757 c 128,-1,5
 114.716 758 114.716 758 129.57 743 c 128,-1,6
 144.426 728 144.426 728 139.312 699 c 0,7,8
 133.317 665 133.317 665 107.264 625 c 128,-1,9
 81.2109 585 81.2109 585 56.4502 558 c 1,0,1
EndSplineSet
EndChar

StartChar: parenleft
Encoding: 40 40 11
Width: 268
GlyphClass: 2
Flags: W
LayerCount: 2
Fore
SplineSet
9.75977 148 m 0,0,1
 10.6992 159 10.6992 159 40.2344 326.5 c 128,-1,2
 69.7695 494 69.7695 494 72.1797 502 c 0,3,4
 96.6357 601 96.6357 601 159.891 670.5 c 128,-1,5
 223.146 740 223.146 740 309.317 775 c 1,6,-1
 291.155 672 l 1,7,8
 197.752 613 197.752 613 166.709 505 c 0,9,10
 164.298 497 164.298 497 134.499 328 c 128,-1,11
 104.699 159 104.699 159 103.76 148 c 0,12,13
 98.3643 38 98.3643 38 167.432 -24 c 1,14,-1
 147.683 -136 l 1,15,16
 76.3838 -98 76.3838 -98 38.5791 -26 c 128,-1,17
 0.774414 46 0.774414 46 9.75977 148 c 0,0,1
EndSplineSet
EndChar

StartChar: parenright
Encoding: 41 41 12
Width: 295
GlyphClass: 2
Flags: W
LayerCount: 2
Fore
SplineSet
211.672 150 m 0,0,1
 183.862 49 183.862 49 120.579 -23.5 c 128,-1,2
 57.2949 -96 57.2949 -96 -27.4053 -134 c 1,3,-1
 -7.65625 -22 l 1,4,5
 83.4521 41 83.4521 41 116.672 150 c 0,6,7
 119.611 161 119.611 161 149.41 330 c 128,-1,8
 179.21 499 179.21 499 179.62 507 c 0,9,10
 187.664 615 187.664 615 115.243 675 c 1,11,-1
 133.405 778 l 1,12,13
 207.058 742 207.058 742 245.391 673 c 128,-1,14
 283.725 604 283.725 604 274.268 505 c 0,15,16
 272.857 497 272.857 497 243.234 329 c 128,-1,17
 213.611 161 213.611 161 211.672 150 c 0,0,1
EndSplineSet
EndChar

StartChar: asterisk
Encoding: 42 42 13
Width: 212
GlyphClass: 2
Flags: W
LayerCount: 2
Fore
SplineSet
173.295 678 m 1,0,-1
 145.295 678 l 2,1,2
 133.295 678 133.295 678 143.179 666 c 2,3,-1
 169.536 634 l 1,4,-1
 156.539 617 l 1,5,-1
 138.423 605 l 1,6,-1
 104.476 645 l 1,7,8
 100.828 647 l 1,9,10
 95.4756 645 l 1,11,-1
 48.4229 605 l 1,12,-1
 32.5391 617 l 1,13,-1
 26.5361 634 l 1,14,-1
 66.1787 666 l 2,15,16
 71.8838 670 71.8838 670 70.1777 674.5 c 128,-1,17
 68.4707 679 68.4707 679 63.2949 678 c 1,18,-1
 36.2949 678 l 1,19,-1
 34.8213 698 l 1,20,-1
 42.9951 716 l 1,21,-1
 77.8184 715 l 2,22,23
 80.8184 715 80.8184 715 87.4648 721.5 c 128,-1,24
 94.1113 728 94.1113 728 94.9922 733 c 2,25,-1
 98.8721 755 l 1,26,-1
 119.577 759 l 1,27,-1
 138.872 755 l 1,28,-1
 134.992 733 l 2,29,30
 133.935 727 133.935 727 139.053 722 c 128,-1,31
 144.172 717 144.172 717 148.172 717 c 2,32,-1
 179.995 716 l 1,33,-1
 182.821 698 l 1,34,-1
 173.295 678 l 1,0,-1
EndSplineSet
EndChar

StartChar: plus
Encoding: 43 43 14
Width: 495
GlyphClass: 2
Flags: W
LayerCount: 2
Fore
SplineSet
424.211 316 m 1,0,-1
 288.035 315 l 1,1,-1
 260.704 160 l 1,2,-1
 170.704 160 l 1,3,-1
 197.035 315 l 1,4,-1
 56.8584 314 l 1,5,-1
 72.9043 405 l 1,6,-1
 215.552 403 l 1,7,-1
 238.296 549 l 1,8,-1
 328.296 549 l 1,9,-1
 302.904 405 l 1,10,-1
 440.081 406 l 1,11,-1
 424.211 316 l 1,0,-1
EndSplineSet
EndChar

StartChar: comma
Encoding: 44 44 15
Width: 154
GlyphClass: 2
Flags: W
LayerCount: 2
Fore
SplineSet
25.9492 69 m 0,0,1
 30.5342 95 30.5342 95 50.6787 110 c 128,-1,2
 70.8242 125 70.8242 125 92.4121 125.5 c 128,-1,3
 114 126 114 126 129.268 110.5 c 128,-1,4
 144.534 95 144.534 95 139.421 66 c 0,5,6
 135.895 46 135.895 46 123.632 27.5 c 128,-1,7
 111.37 9 111.37 9 101.431 -2 c 128,-1,8
 91.4912 -13 91.4912 -13 70.5225 -27 c 128,-1,9
 49.5537 -41 49.5537 -41 45.2012 -43 c 128,-1,10
 40.8486 -45 40.8486 -45 23.085 -55 c 1,11,12
 29.1436 -49 29.1436 -49 36.9941 -38.5 c 128,-1,13
 44.8457 -28 44.8457 -28 52.5498 -15.5 c 128,-1,14
 60.2539 -3 60.2539 -3 65.1055 7.5 c 128,-1,15
 69.957 18 69.957 18 70.0146 24 c 128,-1,16
 70.0732 30 70.0732 30 62.7207 28 c 0,17,18
 44.8389 23 44.8389 23 33.1309 36 c 128,-1,19
 21.4229 49 21.4229 49 25.9492 69 c 0,0,1
EndSplineSet
EndChar

StartChar: hyphen
Encoding: 45 45 16
Width: 470
GlyphClass: 2
Flags: W
LayerCount: 2
Fore
SplineSet
429.978 217 m 1,0,-1
 40.9775 217 l 1,1,-1
 56.8467 307 l 1,2,-1
 446.022 308 l 1,3,-1
 429.978 217 l 1,0,-1
EndSplineSet
EndChar

StartChar: period
Encoding: 46 46 17
Width: 190
GlyphClass: 2
Flags: W
LayerCount: 2
Fore
SplineSet
15.1309 60 m 0,0,1
 19.8916 87 19.8916 87 40.625 102.5 c 128,-1,2
 61.3574 118 61.3574 118 83.4463 118.5 c 128,-1,3
 105.534 119 105.534 119 120.89 104 c 128,-1,4
 136.244 89 136.244 89 131.483 62 c 0,5,6
 126.37 33 126.37 33 105.461 16.5 c 128,-1,7
 84.5508 0 84.5508 0 62.5508 0 c 128,-1,8
 40.5508 0 40.5508 0 25.3721 16 c 128,-1,9
 10.1934 32 10.1934 32 15.1309 60 c 0,0,1
EndSplineSet
EndChar

StartChar: slash
Encoding: 47 47 18
Width: 500
GlyphClass: 2
Flags: W
LayerCount: 2
Fore
SplineSet
107.933 0 m 1,0,-1
 0.932617 0 l 1,1,-1
 398.715 702 l 1,2,-1
 499.067 704 l 1,3,-1
 107.933 0 l 1,0,-1
EndSplineSet
EndChar

StartChar: zero
Encoding: 48 48 19
Width: 569
GlyphClass: 2
Flags: W
LayerCount: 2
Fore
SplineSet
126.135 367 m 0,0,1
 102.684 234 102.684 234 135.575 171 c 0,2,3
 169.29 107 169.29 107 237.82 101.5 c 128,-1,4
 306.351 96 306.351 96 361.754 155 c 0,5,6
 422.215 220 422.215 220 446.9 360 c 0,7,8
 471.939 502 471.939 502 426.048 565 c 0,9,10
 400.22 600 400.22 600 357.982 610 c 128,-1,11
 315.746 620 315.746 620 270.308 600.5 c 128,-1,12
 224.869 581 224.869 581 189.758 535 c 0,13,14
 145.531 477 145.531 477 126.135 367 c 0,0,1
33.0771 361 m 0,15,16
 58.292 504 58.292 504 127.104 588 c 0,17,18
 180.741 654 180.741 654 253.267 682.5 c 128,-1,19
 325.792 711 325.792 711 392.734 696.5 c 128,-1,20
 459.678 682 459.678 682 501.333 629 c 0,21,22
 571.64 540 571.64 540 539.548 358 c 0,23,24
 511.162 180 511.162 180 426.939 88 c 0,25,26
 369.831 25 369.831 25 296.393 5.5 c 128,-1,27
 222.954 -14 222.954 -14 157.451 11.5 c 128,-1,28
 91.9473 37 91.9473 37 55.2324 101 c 0,29,30
 3.27832 192 3.27832 192 33.0771 361 c 0,15,16
EndSplineSet
EndChar

StartChar: one
Encoding: 49 49 20
Width: 392
GlyphClass: 2
Flags: W
LayerCount: 2
Fore
SplineSet
213.318 600 m 1,0,-1
 99.3184 600 l 1,2,-1
 119.478 720 l 5,3,-1
 331.478 720 l 1,4,-1
 312.2 605 l 1,6,-1
 220.275 78 l 1,7,-1
 221.275 78 l 1,8,-1
 207.522 0 l 1,9,-1
 110.522 0 l 1,10,-1
 123.275 78 l 1,11,-1
 122.275 78 l 1,12,-1
 213.318 600 l 1,0,-1
EndSplineSet
EndChar

StartChar: two
Encoding: 50 50 21
Width: 540
GlyphClass: 2
Flags: W
LayerCount: 2
Fore
SplineSet
-25.8096 0 m 1,0,-1
 348.016 396 l 2,1,2
 414.122 476 414.122 476 415.055 538 c 128,-1,3
 415.986 600 415.986 600 352.632 615 c 0,4,5
 319.042 623 319.042 623 272.368 605 c 128,-1,6
 225.694 587 225.694 587 204.465 546 c 1,7,-1
 135.281 596 l 5,8,9
 207.501 705 207.501 705 345.972 702 c 0,10,11
 446.619 700 446.619 700 487.186 646.5 c 128,-1,12
 527.752 593 527.752 593 501.235 505 c 128,-1,13
 474.719 417 474.719 417 386.438 319 c 2,14,-1
 174.06 90 l 1,15,-1
 448.236 91 l 1,16,-1
 432.19 0 l 1,17,-1
 74.0137 -1 l 1,18,-1
 74.1904 0 l 1,19,-1
 -25.8096 0 l 1,0,-1
EndSplineSet
EndChar

StartChar: three
Encoding: 51 51 22
Width: 510
GlyphClass: 2
Flags: W
LayerCount: 2
Fore
SplineSet
295.828 414 m 2,0,1
 341.062 421 341.062 421 372.556 472 c 128,-1,2
 404.048 523 404.048 523 389.982 568 c 0,3,4
 377.036 608 377.036 608 325.151 620 c 0,5,6
 289.386 627 289.386 627 245.123 617 c 128,-1,7
 200.859 607 200.859 607 174.688 572 c 1,8,-1
 107.151 620 l 1,9,10
 184.14 705 184.14 705 325.61 702 c 0,11,12
 390.435 701 390.435 701 432.468 670 c 128,-1,13
 474.502 639 474.502 639 485.979 593.5 c 128,-1,14
 497.456 548 497.456 548 477.258 493 c 128,-1,15
 457.061 438 457.061 438 405.772 391 c 1,16,17
 440.015 347 440.015 347 452.463 298.5 c 128,-1,18
 464.911 250 464.911 250 456.24 206.5 c 128,-1,19
 447.57 163 447.57 163 422.518 123 c 128,-1,20
 397.464 83 397.464 83 360.438 54.5 c 128,-1,21
 323.413 26 323.413 26 276.416 9 c 128,-1,22
 229.418 -8 229.418 -8 180.418 -8 c 0,23,24
 70.7129 -12 70.7129 -12 -24.4121 44 c 1,25,-1
 45.5781 112 l 1,26,27
 78.5801 95 78.5801 95 107.17 87 c 128,-1,28
 135.759 79 135.759 79 155.759 79 c 128,-1,29
 175.759 79 175.759 79 199.936 80 c 0,30,31
 242.936 80 242.936 80 279.227 101.5 c 128,-1,32
 315.518 123 315.518 123 333.836 156 c 128,-1,33
 352.155 189 352.155 189 357.414 224.5 c 128,-1,34
 362.674 260 362.674 260 345.052 290.5 c 128,-1,35
 327.43 321 327.43 321 290.723 334 c 1,36,-1
 199.723 334 l 1,37,-1
 210.476 412 l 1,38,-1
 295.828 414 l 2,0,1
EndSplineSet
EndChar

StartChar: four
Encoding: 52 52 23
Width: 477
GlyphClass: 2
Flags: W
LayerCount: 2
Fore
SplineSet
298.193 243 m 1,0,-1
 345.449 511 l 1,1,-1
 119.193 243 l 1,2,-1
 298.193 243 l 1,0,-1
477.654 722 m 1,3,-1
 393.37 244 l 1,4,-1
 439.37 244 l 1,5,-1
 423.382 159 l 1,6,-1
 381.382 159 l 1,7,-1
 353.346 0 l 1,8,-1
 253.346 0 l 1,9,-1
 281.911 162 l 1,10,-1
 88.9111 162 l 1,11,-1
 -18.0889 162 l 1,12,-1
 -10.5068 205 l 1,13,-1
 435.654 722 l 1,14,-1
 477.654 722 l 1,3,-1
EndSplineSet
EndChar

StartChar: five
Encoding: 53 53 24
Width: 509
GlyphClass: 2
Flags: W
LayerCount: 2
Fore
SplineSet
172.395 700 m 1,0,-1
 464.395 700 l 1,1,-1
 452.289 620 l 1,2,-1
 251.289 620 l 1,3,-1
 213.376 422 l 1,4,5
 286.729 424 286.729 424 326.818 416 c 128,-1,6
 366.907 408 366.907 408 403.794 379 c 0,7,8
 434.738 356 434.738 356 448.126 318.5 c 128,-1,9
 461.514 281 461.514 281 458.196 239.5 c 128,-1,10
 454.879 198 454.879 198 434.473 156 c 128,-1,11
 414.067 114 414.067 114 381.072 80 c 128,-1,12
 348.077 46 348.077 46 297.374 25 c 128,-1,13
 246.671 4 246.671 4 187.671 4 c 0,14,15
 130.143 1 130.143 1 74.8447 22 c 128,-1,16
 19.5479 43 19.5479 43 -19.1621 73 c 1,17,-1
 39.7705 135 l 1,18,19
 85.4805 105 85.4805 105 115.952 93.5 c 128,-1,20
 146.425 82 146.425 82 197.425 82 c 0,21,22
 245.602 83 245.602 83 284.862 110 c 128,-1,23
 324.123 137 324.123 137 343.059 173.5 c 128,-1,24
 361.994 210 361.994 210 361.283 248.5 c 128,-1,25
 360.572 287 360.572 287 336.627 310 c 0,26,27
 294.328 348 294.328 348 227.033 352 c 2,28,-1
 109.328 348 l 1,29,-1
 172.395 700 l 1,0,-1
EndSplineSet
EndChar

StartChar: six
Encoding: 54 54 25
Width: 590
GlyphClass: 2
Flags: W
LayerCount: 2
Fore
SplineSet
31.0693 256 m 0,0,1
 30.0674 273 30.0674 273 34.8262 308.5 c 128,-1,2
 39.5859 344 39.5859 344 45.5225 380.5 c 128,-1,3
 51.458 417 51.458 417 72.0977 466 c 128,-1,4
 92.7383 515 92.7383 515 124.673 560 c 0,5,6
 169.958 624 169.958 624 239.334 663 c 128,-1,7
 308.711 702 308.711 702 377.711 702 c 0,8,9
 463.888 703 463.888 703 502.303 677 c 1,10,-1
 452.078 602 l 1,11,12
 444.665 611 444.665 611 418.899 618 c 128,-1,13
 393.134 625 393.134 625 351.252 620 c 0,14,15
 304.371 615 304.371 615 265.463 590 c 128,-1,16
 226.555 565 226.555 565 201.03 528 c 128,-1,17
 175.506 491 175.506 491 160.041 451.5 c 128,-1,18
 144.576 412 144.576 412 137.171 370 c 1,19,20
 136.702 356 136.702 356 137.173 353 c 1,21,22
 181.402 394 181.402 394 228.018 414.5 c 128,-1,23
 274.632 435 274.632 435 308.572 437.5 c 128,-1,24
 342.514 440 342.514 440 377.103 432 c 128,-1,25
 411.692 424 411.692 424 426.87 416.5 c 128,-1,26
 442.047 409 442.047 409 455.46 400 c 0,27,28
 486.934 380 486.934 380 502.882 331.5 c 128,-1,29
 518.83 283 518.83 283 508.427 224 c 0,30,31
 494.32 144 494.32 144 442.799 90 c 0,32,33
 358.459 3 358.459 3 243.282 2 c 0,34,35
 115.282 2 115.282 2 64.2676 104 c 0,36,37
 51.499 128 51.499 128 40.3447 181 c 128,-1,38
 29.1904 234 29.1904 234 31.0693 256 c 0,0,1
131.779 226 m 0,39,40
 124.021 182 124.021 182 140.379 150 c 128,-1,41
 156.736 118 156.736 118 186.268 104 c 128,-1,42
 215.799 90 215.799 90 253.388 90.5 c 128,-1,43
 290.976 91 290.976 91 326.208 106.5 c 128,-1,44
 361.441 122 361.441 122 388.761 155 c 128,-1,45
 416.079 188 416.079 188 424.014 233 c 0,46,47
 432.654 282 432.654 282 408.208 313.5 c 128,-1,48
 383.763 345 383.763 345 341.055 358 c 0,49,50
 316.76 362 316.76 362 300.819 359.5 c 128,-1,51
 284.878 357 284.878 357 259.645 350 c 0,52,53
 218.528 338 218.528 338 178.063 298.5 c 128,-1,54
 137.599 259 137.599 259 131.779 226 c 0,39,40
EndSplineSet
EndChar

StartChar: seven
Encoding: 55 55 26
Width: 481
GlyphClass: 2
Flags: W
LayerCount: 2
Fore
SplineSet
132.921 691 m 1,0,-1
 498.744 690 l 1,1,-1
 483.934 606 l 1,2,-1
 484.404 603 l 1,3,-1
 104.079 0 l 1,4,-1
 -18.9209 0 l 1,5,-1
 369.522 598 l 1,6,-1
 116.522 598 l 1,7,-1
 132.921 691 l 1,0,-1
EndSplineSet
EndChar

StartChar: eight
Encoding: 56 56 27
Width: 555
GlyphClass: 2
Flags: W
LayerCount: 2
Fore
SplineSet
94.4326 505 m 0,0,1
 102.72 552 102.72 552 129.214 594.5 c 128,-1,2
 155.707 637 155.707 637 190.939 661 c 0,3,4
 254.521 704 254.521 704 334.109 704.5 c 128,-1,5
 413.697 705 413.697 705 460.82 666 c 0,6,7
 490.589 642 490.589 642 504.33 598 c 128,-1,8
 518.072 554 518.072 554 509.433 505 c 0,9,10
 498.497 460 498.497 460 427.92 383 c 1,11,12
 515.283 317 515.283 317 495.887 207 c 0,13,14
 480.723 121 480.723 121 432.906 71 c 0,15,16
 391.324 28 391.324 28 333.356 5.5 c 128,-1,17
 275.39 -17 275.39 -17 215.39 -17 c 0,18,19
 150.39 -17 150.39 -17 98.4736 9 c 128,-1,20
 46.5586 35 46.5586 35 22.0225 83 c 256,21,22
 -2.51367 131 -2.51367 131 10.71 206 c 0,23,24
 29.2246 311 29.2246 311 136.215 379 c 1,25,26
 86.8525 445 86.8525 445 94.4326 505 c 0,0,1
112.769 212 m 0,27,28
 105.01 168 105.01 168 120.779 135.5 c 128,-1,29
 136.549 103 136.549 103 165.992 88.5 c 128,-1,30
 195.436 74 195.436 74 232.847 73.5 c 128,-1,31
 270.259 73 270.259 73 305.315 87.5 c 128,-1,32
 340.372 102 340.372 102 367.104 134.5 c 128,-1,33
 393.834 167 393.834 167 401.769 212 c 0,34,35
 410.408 261 410.408 261 388.639 293.5 c 128,-1,36
 366.869 326 366.869 326 324.985 338 c 0,37,38
 275.572 347 275.572 347 229.633 336 c 0,39,40
 185.517 324 185.517 324 153.375 292 c 128,-1,41
 121.232 260 121.232 260 112.769 212 c 0,27,28
316.268 419 m 0,42,43
 355.855 428 355.855 428 384.116 455 c 128,-1,44
 412.377 482 412.377 482 419.959 525 c 0,45,46
 425.777 558 425.777 558 413.01 582 c 128,-1,47
 400.241 606 400.241 606 376.181 617 c 128,-1,48
 352.12 628 352.12 628 322.532 627.5 c 128,-1,49
 292.944 627 292.944 627 265.505 616 c 128,-1,50
 238.064 605 238.064 605 216.333 581 c 128,-1,51
 194.602 557 194.602 557 188.782 524 c 0,52,53
 181.024 480 181.024 480 200.263 453 c 128,-1,54
 219.502 426 219.502 426 256.092 418 c 0,55,56
 284.562 415 284.562 415 316.268 419 c 0,42,43
EndSplineSet
EndChar

StartChar: nine
Encoding: 57 57 28
Width: 515
GlyphClass: 2
Flags: W
LayerCount: 2
Fore
SplineSet
157.744 501 m 0,0,1
 148.575 449 148.575 449 171.285 419 c 128,-1,2
 193.995 389 193.995 389 230.29 385 c 128,-1,3
 266.585 381 266.585 381 306.553 395 c 128,-1,4
 346.521 409 346.521 409 370.282 436 c 0,5,6
 396.043 463 396.043 463 407.979 508 c 0,7,8
 413.679 546 413.679 546 400.027 573.5 c 128,-1,9
 386.376 601 386.376 601 360.404 612.5 c 128,-1,10
 334.432 624 334.432 624 302.167 622.5 c 128,-1,11
 269.903 621 269.903 621 240.11 608 c 128,-1,12
 210.318 595 210.318 595 187.293 566.5 c 128,-1,13
 164.268 538 164.268 538 157.744 501 c 0,0,1
63.6855 495 m 0,14,15
 75.8525 564 75.8525 564 117.257 614.5 c 128,-1,16
 158.661 665 158.661 665 212.129 687.5 c 128,-1,17
 265.596 710 265.596 710 322.596 710 c 128,-1,18
 379.596 710 379.596 710 424.129 687.5 c 128,-1,19
 468.661 665 468.661 665 491.257 614.5 c 128,-1,20
 513.853 564 513.853 564 500.862 496 c 0,21,22
 478.64 404 478.64 404 400.102 262 c 128,-1,23
 321.563 120 321.563 120 219.404 0 c 1,24,-1
 91.5801 1 l 1,25,26
 151.688 64 151.688 64 177.626 92 c 128,-1,27
 203.563 120 203.563 120 245.85 175.5 c 128,-1,28
 288.136 231 288.136 231 317.48 284 c 0,29,30
 320.539 290 320.539 290 325.596 304.5 c 128,-1,31
 330.652 319 330.652 319 332.182 322 c 1,32,33
 288.597 296 288.597 296 227.597 296 c 0,34,35
 176.597 296 176.597 296 136.3 317 c 128,-1,36
 96.002 338 96.002 338 74.2012 384.5 c 128,-1,37
 52.4004 431 52.4004 431 63.6855 495 c 0,14,15
EndSplineSet
EndChar

StartChar: colon
Encoding: 58 58 29
Width: 161
GlyphClass: 2
Flags: W
LayerCount: 2
Fore
SplineSet
51.8418 409 m 0,0,1
 56.25 434 56.25 434 77.3945 449 c 128,-1,2
 98.54 464 98.54 464 120.128 464.5 c 128,-1,3
 141.716 465 141.716 465 157.659 450.5 c 128,-1,4
 173.603 436 173.603 436 169.019 410 c 0,5,6
 164.258 383 164.258 383 143.024 367.5 c 128,-1,7
 121.791 352 121.791 352 100.291 352 c 128,-1,8
 78.791 352 78.791 352 62.9365 367 c 128,-1,9
 47.0811 382 47.0811 382 51.8418 409 c 0,0,1
-8.05176 75 m 0,10,11
 -3.29004 102 -3.29004 102 17.4424 117.5 c 128,-1,12
 38.1758 133 38.1758 133 60.2637 133.5 c 128,-1,13
 82.3516 134 82.3516 134 97.707 119 c 128,-1,14
 113.062 104 113.062 104 108.302 77 c 0,15,16
 103.188 48 103.188 48 82.2783 31.5 c 128,-1,17
 61.3691 15 61.3691 15 39.3691 15 c 128,-1,18
 17.3691 15 17.3691 15 2.19043 31 c 128,-1,19
 -12.9883 47 -12.9883 47 -8.05176 75 c 0,10,11
EndSplineSet
EndChar

StartChar: semicolon
Encoding: 59 59 30
Width: 154
GlyphClass: 2
Flags: W
LayerCount: 2
Fore
SplineSet
51.3838 414 m 256,0,1
 55.9688 440 55.9688 440 76.6133 455 c 128,-1,2
 97.2578 470 97.2578 470 119.258 470 c 128,-1,3
 141.258 470 141.258 470 156.789 456 c 128,-1,4
 172.321 442 172.321 442 167.736 416 c 0,5,6
 162.976 389 162.976 389 142.242 373.5 c 128,-1,7
 121.51 358 121.51 358 99.5098 358 c 128,-1,8
 77.5098 358 77.5098 358 62.1543 373 c 128,-1,9
 46.7988 388 46.7988 388 51.3838 414 c 256,0,1
-0.393555 92 m 0,10,11
 4.01465 117 4.01465 117 24.748 132.5 c 128,-1,12
 45.4805 148 45.4805 148 67.0693 148.5 c 128,-1,13
 88.6572 149 88.6572 149 103.336 133 c 128,-1,14
 118.015 117 118.015 117 112.901 88 c 0,15,16
 109.551 69 109.551 69 97.7012 50 c 128,-1,17
 85.8506 31 85.8506 31 75.999 20.5 c 128,-1,18
 66.1475 10 66.1475 10 44.6787 -4 c 128,-1,19
 23.2109 -18 23.2109 -18 19.2695 -20.5 c 128,-1,20
 15.3291 -23 15.3291 -23 -3.25781 -32 c 1,21,22
 2.62402 -27 2.62402 -27 10.5635 -16 c 128,-1,23
 18.5029 -5 18.5029 -5 26.1191 7 c 128,-1,24
 33.7344 19 33.7344 19 39.0859 29.5 c 128,-1,25
 44.4375 40 44.4375 40 43.9951 46 c 128,-1,26
 43.5537 52 43.5537 52 36.2012 50 c 0,27,28
 19.4951 46 19.4951 46 7.19922 58.5 c 128,-1,29
 -5.09668 71 -5.09668 71 -0.393555 92 c 0,10,11
EndSplineSet
EndChar

StartChar: less
Encoding: 60 60 31
Width: 618
GlyphClass: 2
Flags: W
LayerCount: 2
Fore
SplineSet
575.555 596 m 1,0,-1
 557.923 496 l 1,1,-1
 284.882 371 l 1,2,-1
 507.606 239 l 1,3,-1
 488.444 136 l 1,4,-1
 152.828 331 l 1,5,-1
 84.4102 374 l 1,6,-1
 148.348 402 l 1,7,-1
 575.555 596 l 1,0,-1
EndSplineSet
EndChar

StartChar: equal
Encoding: 61 61 32
Width: 665
GlyphClass: 2
Flags: W
LayerCount: 2
Fore
SplineSet
100.863 289 m 1,0,-1
 542.688 288 l 1,1,-1
 525.171 200 l 1,2,-1
 83.3467 201 l 1,3,-1
 100.863 289 l 1,0,-1
138.829 527 m 1,4,-1
 580.653 526 l 1,5,-1
 567.137 438 l 1,6,-1
 125.312 439 l 1,7,-1
 138.829 527 l 1,4,-1
EndSplineSet
EndChar

StartChar: greater
Encoding: 62 62 33
Width: 618
GlyphClass: 2
Flags: W
LayerCount: 2
Fore
SplineSet
123.556 596 m 1,0,-1
 482.348 402 l 1,1,-1
 536.41 374 l 1,2,-1
 452.828 331 l 1,3,-1
 48.4443 136 l 1,4,-1
 65.6064 239 l 1,5,-1
 334.882 371 l 1,6,-1
 105.923 496 l 1,7,-1
 123.556 596 l 1,0,-1
EndSplineSet
EndChar

StartChar: question
Encoding: 63 63 34
Width: 548
GlyphClass: 2
Flags: W
LayerCount: 2
Fore
SplineSet
300.457 672 m 0,0,1
 269.457 672 269.457 672 245.782 662.5 c 128,-1,2
 222.107 653 222.107 653 208.227 639.5 c 128,-1,3
 194.347 626 194.347 626 176.525 610 c 1,4,-1
 146.691 679 l 1,5,6
 185.039 715 185.039 715 228.037 732 c 128,-1,7
 271.034 749 271.034 749 327.034 749 c 0,8,9
 416.034 749 416.034 749 459.807 699.5 c 128,-1,10
 503.578 650 503.578 650 489.119 568 c 0,11,12
 481.714 526 481.714 526 457.542 491 c 128,-1,13
 433.371 456 433.371 456 384.965 414 c 2,14,-1
 335.206 370 l 2,15,16
 291.153 330 291.153 330 281.039 309.5 c 128,-1,17
 270.924 289 270.924 289 261.755 237 c 2,18,-1
 256.758 220 l 1,19,-1
 158.876 215 l 1,20,-1
 165.694 248 l 2,21,22
 175.922 306 175.922 306 197.74 339 c 128,-1,23
 219.56 372 219.56 372 264.436 411 c 2,24,-1
 315.547 457 l 2,25,26
 324.958 465 324.958 465 335.456 473.5 c 128,-1,27
 345.955 482 345.955 482 355.807 492.5 c 128,-1,28
 365.658 503 365.658 503 373.833 512.5 c 128,-1,29
 382.008 522 382.008 522 388.124 534 c 128,-1,30
 394.24 546 394.24 546 395.356 558 c 0,31,32
 412.457 672 412.457 672 300.457 672 c 0,0,1
122.545 60 m 0,33,34
 127.306 87 127.306 87 148.039 102.5 c 128,-1,35
 168.772 118 168.772 118 190.86 118.5 c 128,-1,36
 212.948 119 212.948 119 228.304 104 c 128,-1,37
 243.658 89 243.658 89 238.897 62 c 0,38,39
 233.784 33 233.784 33 212.875 16.5 c 128,-1,40
 191.966 0 191.966 0 169.966 0 c 128,-1,41
 147.966 0 147.966 0 132.787 16 c 128,-1,42
 117.608 32 117.608 32 122.545 60 c 0,33,34
EndSplineSet
EndChar

StartChar: at
Encoding: 64 64 35
Width: 905
GlyphClass: 2
Flags: W
LayerCount: 2
Fore
SplineSet
646.687 90 m 1,0,1
 613.336 71 613.336 71 594.161 61.5 c 128,-1,2
 574.986 52 574.986 52 541.37 40 c 128,-1,3
 507.754 28 507.754 28 468.372 23 c 128,-1,4
 428.991 18 428.991 18 376.991 18 c 0,5,6
 311.991 18 311.991 18 258.605 38.5 c 128,-1,7
 205.221 59 205.221 59 172.127 92.5 c 128,-1,8
 139.034 126 139.034 126 118.116 169 c 128,-1,9
 97.1982 212 97.1982 212 92.3096 258 c 128,-1,10
 87.4199 304 87.4199 304 95.5312 350 c 0,11,12
 120.041 489 120.041 489 221.85 590 c 0,13,14
 276.371 644 276.371 644 361.19 677 c 128,-1,15
 446.009 710 446.009 710 525.009 710 c 0,16,17
 598.009 710 598.009 710 662.307 689 c 128,-1,18
 726.604 668 726.604 668 762.256 632 c 0,19,20
 807.792 584 807.792 584 821.802 516 c 128,-1,21
 835.812 448 835.812 448 822.234 371 c 0,22,23
 812.184 314 812.184 314 793.276 280.5 c 128,-1,24
 774.37 247 774.37 247 726.846 210 c 0,25,26
 687.732 181 687.732 181 640.498 174 c 128,-1,27
 593.264 167 593.264 167 557.82 181.5 c 128,-1,28
 522.377 196 522.377 196 512.667 226 c 1,29,30
 472.259 201 472.259 201 426.142 197.5 c 128,-1,31
 380.024 194 380.024 194 342.846 210 c 128,-1,32
 305.667 226 305.667 226 285.309 266.5 c 128,-1,33
 264.949 307 264.949 307 273.823 363 c 0,34,35
 280.582 407 280.582 407 301.842 442.5 c 128,-1,36
 323.102 478 323.102 478 351.716 498.5 c 128,-1,37
 380.331 519 380.331 519 413.271 530 c 128,-1,38
 446.21 541 446.21 541 479.445 539.5 c 128,-1,39
 512.681 538 512.681 538 539.389 525 c 0,40,41
 555.802 516 555.802 516 560.686 504 c 1,42,-1
 566.152 535 l 1,43,-1
 639.152 535 l 1,44,45
 632.215 507 632.215 507 622.162 467 c 128,-1,46
 612.108 427 612.108 427 606.642 404.5 c 128,-1,47
 601.174 382 601.174 382 596.091 347.5 c 128,-1,48
 591.008 313 591.008 313 589.659 277 c 1,49,50
 593.898 250 593.898 250 629.841 244 c 128,-1,51
 665.783 238 665.783 238 694.015 262 c 0,52,53
 723.423 287 723.423 287 732.744 303 c 128,-1,54
 742.065 319 742.065 319 750.529 367 c 0,55,56
 774.099 495 774.099 495 706.5 571 c 0,57,58
 679.143 603 679.143 603 624.728 620.5 c 128,-1,59
 570.313 638 570.313 638 513.313 638 c 0,60,61
 446.313 638 446.313 638 376.729 612 c 128,-1,62
 307.145 586 307.145 586 265.386 542 c 0,63,64
 192.809 465 192.809 465 172.531 350 c 0,65,66
 165.479 310 165.479 310 175.632 265.5 c 128,-1,67
 185.785 221 185.785 221 211.232 181 c 128,-1,68
 236.679 141 236.679 141 283.418 114 c 128,-1,69
 330.157 87 330.157 87 388.981 86 c 0,70,71
 425.805 85 425.805 85 456.245 87.5 c 128,-1,72
 486.687 90 486.687 90 507.156 95.5 c 128,-1,73
 527.626 101 527.626 101 545.86 108 c 128,-1,74
 564.095 115 564.095 115 577.505 123 c 128,-1,75
 590.916 131 590.916 131 606.503 140 c 1,76,-1
 646.687 90 l 1,0,1
347.353 366 m 0,77,78
 341.534 333 341.534 333 353.537 307.5 c 128,-1,79
 365.541 282 365.541 282 388.866 272.5 c 128,-1,80
 412.191 263 412.191 263 438.367 264 c 128,-1,81
 464.544 265 464.544 265 489.453 281.5 c 128,-1,82
 514.362 298 514.362 298 527.476 327 c 0,83,84
 531.415 338 531.415 338 536.293 368.5 c 128,-1,85
 541.172 399 541.172 399 541.935 409 c 1,86,87
 538.225 439 538.225 439 519.898 457 c 128,-1,88
 501.572 475 501.572 475 475.66 475.5 c 128,-1,89
 449.749 476 449.749 476 422.897 465.5 c 128,-1,90
 396.046 455 396.046 455 374.873 428.5 c 128,-1,91
 353.7 402 353.7 402 347.353 366 c 0,77,78
EndSplineSet
EndChar

StartChar: A
Encoding: 65 65 36
Width: 674
GlyphClass: 2
Flags: W
LayerCount: 2
Fore
SplineSet
393.359 731 m 5,0,-1
 418.138 639 l 5,1,-1
 588.641 1 l 5,2,-1
 493.641 1 l 5,3,-1
 439.732 183 l 5,4,-1
 164.732 183 l 5,5,-1
 51.6406 1 l 5,6,-1
 -43.3594 1 l 5,7,-1
 350.135 656 l 5,8,-1
 393.359 731 l 5,0,-1
416.367 266 m 5,9,-1
 356.097 514 l 5,10,-1
 215.367 266 l 5,11,-1
 416.367 266 l 5,9,-1
EndSplineSet
EndChar

StartChar: B
Encoding: 66 66 37
Width: 517
GlyphClass: 2
Flags: W
LayerCount: 2
Fore
SplineSet
104.656 688 m 1,0,-1
 304.656 688 l 1,1,-1
 307.304 686 l 1,2,3
 352.48 687 352.48 687 385.395 669.5 c 128,-1,4
 418.309 652 418.309 652 433.871 624 c 128,-1,5
 449.435 596 449.435 596 451.675 560.5 c 128,-1,6
 453.915 525 453.915 525 442.597 492 c 128,-1,7
 431.277 459 431.277 459 404.664 430 c 128,-1,8
 378.051 401 378.051 401 340.405 386 c 1,9,10
 339.405 386 339.405 386 339.142 384.5 c 128,-1,11
 338.877 383 338.877 383 339.877 383 c 0,12,13
 385.524 381 385.524 381 413.822 351.5 c 128,-1,14
 442.121 322 442.121 322 449.039 279 c 128,-1,15
 455.957 236 455.957 236 443.729 186.5 c 128,-1,16
 431.5 137 431.5 137 402.595 95 c 128,-1,17
 373.688 53 373.688 53 322.928 26 c 128,-1,18
 272.167 -1 272.167 -1 210.52 1 c 2,19,-1
 200.344 0 l 1,20,-1
 32.3438 0 l 1,21,-1
 32.5195 1 l 1,22,-1
 -16.6562 0 l 1,23,-1
 104.656 688 l 1,0,-1
178.961 616 m 1,24,-1
 142.108 407 l 1,25,-1
 254.108 407 l 2,26,27
 290.99 412 290.99 412 317.958 434.5 c 128,-1,28
 344.925 457 344.925 457 354.127 486.5 c 128,-1,29
 363.328 516 363.328 516 360.441 545 c 128,-1,30
 357.556 574 357.556 574 335.082 594 c 128,-1,31
 312.608 614 312.608 614 275.784 615 c 1,32,-1
 275.961 616 l 1,33,-1
 178.961 616 l 1,24,-1
129.236 334 m 1,34,-1
 87.0947 95 l 1,35,-1
 240.095 95 l 2,36,37
 279.271 96 279.271 96 308.503 120 c 128,-1,38
 337.734 144 337.734 144 347.906 179 c 128,-1,39
 358.077 214 358.077 214 355.661 248.5 c 128,-1,40
 353.244 283 353.244 283 330.564 307.5 c 128,-1,41
 307.884 332 307.884 332 271.061 333 c 1,42,-1
 271.236 334 l 1,43,-1
 129.236 334 l 1,34,-1
EndSplineSet
EndChar

StartChar: C
Encoding: 67 67 38
Width: 694
GlyphClass: 2
Flags: W
LayerCount: 2
Fore
SplineSet
493.145 702 m 4,0,1
 580.615 699 580.615 699 636.679 671 c 4,2,3
 657.738 660 657.738 660 666.093 653.5 c 132,-1,4
 674.446 647 674.446 647 692.272 629 c 5,5,-1
 610.164 566 l 5,6,7
 599.338 584 599.338 584 555.071 599.5 c 132,-1,8
 510.804 615 510.804 615 476.98 616 c 4,9,10
 396.51 619 396.51 619 311.634 571.5 c 132,-1,11
 226.758 524 226.758 524 177.181 447 c 4,12,13
 111.02 344 111.02 344 131.063 245 c 132,-1,14
 151.106 146 151.106 146 246.643 98 c 4,15,16
 293.411 74 293.411 74 349.234 73 c 132,-1,17
 405.059 72 405.059 72 457.732 90 c 132,-1,18
 510.406 108 510.406 108 562.401 142 c 5,19,-1
 610.588 75 l 5,20,21
 559.534 35 559.534 35 494.567 12.5 c 132,-1,22
 429.6 -10 429.6 -10 370.982 -13.5 c 132,-1,23
 312.365 -17 312.365 -17 262.188 -9.5 c 132,-1,24
 212.01 -2 212.01 -2 182.008 15 c 4,25,26
 55.7031 87 55.7031 87 32.3613 215.5 c 132,-1,27
 9.01953 344 9.01953 344 99.8818 485 c 4,28,29
 167.396 590 167.396 590 274.711 648.5 c 132,-1,30
 382.026 707 382.026 707 493.145 702 c 4,0,1
EndSplineSet
EndChar

StartChar: D
Encoding: 68 68 39
Width: 611
GlyphClass: 2
Flags: W
LayerCount: 2
Fore
SplineSet
205.892 691 m 2,0,1
 225.244 693 225.244 693 262.568 692 c 128,-1,2
 299.892 691 299.892 691 315.892 691 c 0,3,4
 373.715 690 373.715 690 420.306 673.5 c 128,-1,5
 466.896 657 466.896 657 495.136 630 c 128,-1,6
 523.375 603 523.375 603 538.967 578 c 128,-1,7
 554.559 553 554.559 553 562.798 526 c 0,8,9
 583.278 455 583.278 455 575.437 376.5 c 128,-1,10
 567.595 298 567.595 298 534.664 227.5 c 128,-1,11
 501.733 157 501.733 157 440.094 99.5 c 128,-1,12
 378.455 42 378.455 42 298.871 16 c 0,13,14
 276.637 9 276.637 9 224.05 0 c 1,15,16
 208.05 0 208.05 0 178.962 -0.5 c 128,-1,17
 149.873 -1 149.873 -1 132.873 -1 c 128,-1,18
 115.873 -1 115.873 -1 77.0498 0 c 2,19,-1
 -21.9502 0 l 1,20,-1
 99.8916 691 l 1,21,-1
 205.892 691 l 2,0,1
476.981 476 m 0,22,23
 462.267 540 462.267 540 415.379 577.5 c 128,-1,24
 368.49 615 368.49 615 293.49 615 c 0,25,26
 288.49 615 288.49 615 250.579 615.5 c 128,-1,27
 212.667 616 212.667 616 178.491 615 c 1,28,-1
 87.6846 83 l 1,29,30
 123.685 83 123.685 83 156.009 82 c 128,-1,31
 188.332 81 188.332 81 229.802 86.5 c 128,-1,32
 271.271 92 271.271 92 306.74 106 c 0,33,34
 360.267 126 360.267 126 399.583 176 c 128,-1,35
 438.899 226 438.899 226 456.362 282.5 c 128,-1,36
 473.824 339 473.824 339 478.993 391 c 128,-1,37
 484.162 443 484.162 443 476.981 476 c 0,22,23
EndSplineSet
EndChar

StartChar: E
Encoding: 69 69 40
Width: 483
GlyphClass: 2
Flags: W
LayerCount: 2
Fore
SplineSet
115.098 693 m 5,0,-1
 481.098 693 l 5,1,-1
 466.109 608 l 5,2,-1
 192.109 608 l 5,3,-1
 157.55 412 l 5,4,-1
 353.55 412 l 5,5,-1
 338.914 329 l 5,6,-1
 142.914 329 l 5,7,-1
 99.3613 82 l 5,8,-1
 382.361 82 l 5,9,-1
 367.902 0 l 5,10,-1
 -7.09766 0 l 5,11,-1
 115.098 693 l 5,0,-1
EndSplineSet
EndChar

StartChar: F
Encoding: 70 70 41
Width: 469
GlyphClass: 2
Flags: W
LayerCount: 2
Fore
SplineSet
118.921 691 m 1,0,-1
 471.921 691 l 1,1,-1
 457.462 609 l 1,2,-1
 197.462 609 l 1,3,-1
 162.726 412 l 1,4,-1
 357.726 412 l 1,5,-1
 343.091 329 l 1,6,-1
 148.091 329 l 1,7,-1
 90.0791 0 l 1,8,-1
 -2.9209 0 l 1,9,-1
 118.921 691 l 1,0,-1
EndSplineSet
EndChar

StartChar: G
Encoding: 71 71 42
Width: 704
GlyphClass: 2
Flags: W
LayerCount: 2
Fore
SplineSet
674.061 365 m 1,0,-1
 629.155 116 l 2,1,2
 626.334 100 626.334 100 606.747 91 c 1,3,4
 555.518 50 555.518 50 490.462 27 c 128,-1,5
 425.406 4 425.406 4 365.613 -0.5 c 128,-1,6
 305.819 -5 305.819 -5 255.554 2 c 128,-1,7
 205.288 9 205.288 9 175.286 26 c 0,8,9
 92.749 74 92.749 74 54.1211 147 c 128,-1,10
 15.4932 220 15.4932 220 21.5703 297 c 128,-1,11
 27.6475 374 27.6475 374 66.4014 452 c 128,-1,12
 105.154 530 105.154 530 167.322 590.5 c 128,-1,13
 229.49 651 229.49 651 314.338 687 c 128,-1,14
 399.186 723 399.186 723 487.656 720 c 0,15,16
 575.128 717 575.128 717 631.015 688 c 0,17,18
 652.074 677 652.074 677 660.429 670.5 c 128,-1,19
 668.782 664 668.782 664 686.608 646 c 1,20,-1
 604.323 582 l 1,21,22
 594.674 601 594.674 601 549.818 616 c 128,-1,23
 504.964 631 504.964 631 471.316 633 c 0,24,25
 390.846 636 390.846 636 305.882 588 c 128,-1,26
 220.918 540 220.918 540 171.341 463 c 0,27,28
 104.826 358 104.826 358 124.782 258.5 c 128,-1,29
 144.737 159 144.737 159 239.921 109 c 0,30,31
 284.865 86 284.865 86 338.189 85 c 128,-1,32
 391.513 84 391.513 84 442.511 101 c 128,-1,33
 493.508 118 493.508 118 543.974 149 c 1,34,-1
 572.836 290 l 1,35,-1
 434.836 290 l 1,36,-1
 448.885 364 l 1,37,-1
 674.061 365 l 1,0,-1
EndSplineSet
EndChar

StartChar: H
Encoding: 72 72 43
Width: 630
GlyphClass: 2
Flags: W
LayerCount: 2
Fore
SplineSet
542.186 694 m 1,0,-1
 633.186 694 l 1,1,-1
 510.814 0 l 1,2,-1
 419.814 0 l 1,3,-1
 474.652 311 l 1,4,-1
 144.828 312 l 1,5,-1
 89.8145 0 l 1,6,-1
 -3.18555 0 l 1,7,-1
 118.48 690 l 1,8,-1
 210.48 690 l 1,9,-1
 198.608 617 l 1,10,-1
 159.287 394 l 1,11,-1
 489.287 394 l 1,12,-1
 542.186 694 l 1,0,-1
EndSplineSet
EndChar

StartChar: I
Encoding: 73 73 44
Width: 207
GlyphClass: 2
Flags: W
LayerCount: 2
Fore
SplineSet
119.273 696 m 5,0,-1
 209.273 696 l 5,1,-1
 87.7266 1 l 5,2,-1
 -2.27344 1 l 5,3,-1
 119.273 696 l 5,0,-1
EndSplineSet
EndChar

StartChar: J
Encoding: 74 74 45
Width: 396
GlyphClass: 2
Flags: W
LayerCount: 2
Fore
SplineSet
17.7002 72 m 1,0,1
 49.1152 46 49.1152 46 88.2627 44 c 128,-1,2
 127.41 42 127.41 42 162.349 61.5 c 128,-1,3
 197.287 81 197.287 81 225.045 125 c 128,-1,4
 252.804 169 252.804 169 262.207 228 c 2,5,-1
 338.433 700 l 1,6,-1
 429.433 700 l 1,7,-1
 354.148 222 l 2,8,9
 343.806 152 343.806 152 311.02 96.5 c 128,-1,10
 278.233 41 278.233 41 234.355 10.5 c 128,-1,11
 190.478 -20 190.478 -20 142.098 -33.5 c 128,-1,12
 93.7168 -47 93.7168 -47 46.5391 -39.5 c 128,-1,13
 -0.638672 -32 -0.638672 -32 -37.2305 -7 c 1,14,-1
 17.7002 72 l 1,0,1
EndSplineSet
EndChar

StartChar: K
Encoding: 75 75 46
Width: 636
GlyphClass: 2
Flags: W
LayerCount: 2
Fore
SplineSet
474.656 686 m 1,0,-1
 587.656 686 l 1,1,-1
 252.526 362 l 1,2,-1
 526.344 -2 l 1,3,-1
 411.344 -2 l 1,4,-1
 144.821 358 l 1,5,-1
 81.3438 -2 l 1,6,-1
 -11.6562 -2 l 1,7,-1
 109.656 686 l 1,8,-1
 202.656 686 l 1,9,-1
 145.351 361 l 1,10,-1
 474.656 686 l 1,0,-1
EndSplineSet
EndChar

StartChar: L
Encoding: 76 76 47
Width: 474
GlyphClass: 2
Flags: W
LayerCount: 2
Fore
SplineSet
202.568 690 m 1,0,-1
 95.8906 85 l 1,1,-1
 378.891 85 l 1,2,-1
 364.256 2 l 1,3,-1
 -11.7451 2 l 1,4,-1
 109.745 691 l 1,5,-1
 202.568 690 l 1,0,-1
EndSplineSet
EndChar

StartChar: M
Encoding: 77 77 48
Width: 734
GlyphClass: 2
Flags: W
LayerCount: 2
Fore
SplineSet
363.799 330 m 1,0,-1
 717.39 719 l 1,1,-1
 624.905 -4 l 1,2,-1
 538.905 -4 l 1,3,-1
 589.191 457 l 1,4,-1
 339.112 190 l 1,5,-1
 179.721 460 l 1,6,-1
 67.4346 -1 l 1,7,-1
 -18.5654 -1 l 1,8,-1
 144.095 723 l 1,9,-1
 363.799 330 l 1,0,-1
EndSplineSet
EndChar

StartChar: N
Encoding: 78 78 49
Width: 646
GlyphClass: 2
Flags: W
LayerCount: 2
Fore
SplineSet
168.099 467 m 1,0,-1
 86.2832 3 l 1,1,-1
 -0.716797 3 l 1,2,-1
 122.183 700 l 1,3,-1
 479.725 204 l 1,4,-1
 563.478 696 l 1,5,-1
 651.478 696 l 1,6,-1
 523.817 -28 l 1,7,-1
 168.099 467 l 1,0,-1
EndSplineSet
EndChar

StartChar: O
Encoding: 79 79 50
Width: 752
GlyphClass: 2
Flags: W
LayerCount: 2
Fore
SplineSet
402.49 627 m 4,0,1
 344.49 627 344.49 627 293.847 603.5 c 132,-1,2
 243.202 580 243.202 580 208.414 541.5 c 132,-1,3
 173.625 503 173.625 503 149.985 454 c 132,-1,4
 126.346 405 126.346 405 118.353 354 c 132,-1,5
 110.36 303 110.36 303 118.632 253.5 c 132,-1,6
 126.903 204 126.903 204 150.203 166 c 132,-1,7
 173.503 128 173.503 128 217.859 104.5 c 132,-1,8
 262.216 81 262.216 81 322.216 81 c 4,9,10
 383.216 81 383.216 81 438.359 104.5 c 132,-1,11
 493.503 128 493.503 128 531.791 166.5 c 132,-1,12
 570.08 205 570.08 205 595.809 254.5 c 132,-1,13
 621.536 304 621.536 304 631.117 355.5 c 132,-1,14
 640.698 407 640.698 407 631.338 456 c 132,-1,15
 621.979 505 621.979 505 596.267 543.5 c 132,-1,16
 570.555 582 570.555 582 520.61 605 c 132,-1,17
 470.666 628 470.666 628 402.49 627 c 4,0,1
423.596 707 m 4,18,19
 512.596 707 512.596 707 578.63 676 c 132,-1,20
 644.664 645 644.664 645 679.848 595 c 132,-1,21
 715.031 545 715.031 545 727.246 481 c 132,-1,22
 739.461 417 739.461 417 727.235 350.5 c 132,-1,23
 715.01 284 715.01 284 680.312 220.5 c 132,-1,24
 645.616 157 645.616 157 593.388 107.5 c 132,-1,25
 541.16 58 541.16 58 465.782 27.5 c 132,-1,26
 390.404 -3 390.404 -3 305.404 -3 c 4,27,28
 222.404 -3 222.404 -3 160.782 27.5 c 132,-1,29
 99.1602 58 99.1602 58 66.9766 108 c 132,-1,30
 34.793 158 34.793 158 23.9893 221.5 c 132,-1,31
 13.1865 285 13.1865 285 25 352 c 132,-1,32
 36.8135 419 36.8135 419 69.5107 482.5 c 132,-1,33
 102.207 546 102.207 546 151.523 596 c 132,-1,34
 200.84 646 200.84 646 271.718 676.5 c 132,-1,35
 342.596 707 342.596 707 423.596 707 c 4,18,19
EndSplineSet
EndChar

StartChar: P
Encoding: 80 80 51
Width: 506
GlyphClass: 2
Flags: W
LayerCount: 2
Fore
SplineSet
113.009 693 m 1,0,-1
 319.833 692 l 2,1,2
 382.009 693 382.009 693 422.983 664.5 c 128,-1,3
 463.959 636 463.959 636 476.876 593 c 128,-1,4
 489.794 550 489.794 550 480.302 499 c 128,-1,5
 470.809 448 470.809 448 441.639 404.5 c 128,-1,6
 412.469 361 412.469 361 359.855 332 c 128,-1,7
 307.241 303 307.241 303 241.418 304 c 2,8,-1
 136.241 303 l 1,9,-1
 83.3438 3 l 1,10,-1
 -9.00879 1 l 1,11,-1
 113.009 693 l 1,0,-1
190.374 610 m 1,12,-1
 150.7 385 l 1,13,-1
 258.7 385 l 2,14,15
 290.7 385 290.7 385 317.609 401.5 c 128,-1,16
 344.52 418 344.52 418 360.339 442.5 c 128,-1,17
 376.159 467 376.159 467 382.772 496 c 128,-1,18
 389.386 525 389.386 525 383.794 550 c 128,-1,19
 378.202 575 378.202 575 357.7 592 c 128,-1,20
 337.197 609 337.197 609 304.197 609 c 2,21,-1
 190.374 610 l 1,12,-1
EndSplineSet
EndChar

StartChar: Q
Encoding: 81 81 52
Width: 763
GlyphClass: 2
Flags: W
LayerCount: 2
Fore
SplineSet
409.46 627 m 0,0,1
 351.46 627 351.46 627 300.816 603.5 c 128,-1,2
 250.172 580 250.172 580 214.884 541.5 c 128,-1,3
 179.595 503 179.595 503 156.455 454 c 128,-1,4
 133.315 405 133.315 405 125.322 354 c 128,-1,5
 117.33 303 117.33 303 125.602 253.5 c 128,-1,6
 133.873 204 133.873 204 157.173 166 c 128,-1,7
 180.473 128 180.473 128 224.829 104.5 c 128,-1,8
 269.186 81 269.186 81 328.186 81 c 0,9,10
 390.186 81 390.186 81 444.829 104.5 c 128,-1,11
 499.473 128 499.473 128 537.761 166.5 c 128,-1,12
 576.05 205 576.05 205 602.278 254.5 c 128,-1,13
 628.506 304 628.506 304 637.587 355.5 c 128,-1,14
 646.668 407 646.668 407 637.808 456 c 128,-1,15
 628.948 505 628.948 505 603.236 543.5 c 128,-1,16
 577.525 582 577.525 582 527.08 605 c 128,-1,17
 476.636 628 476.636 628 409.46 627 c 0,0,1
430.565 707 m 0,18,19
 519.565 707 519.565 707 585.6 676 c 128,-1,20
 651.634 645 651.634 645 686.317 595 c 128,-1,21
 721.001 545 721.001 545 733.216 481 c 128,-1,22
 745.431 417 745.431 417 733.705 350.5 c 128,-1,23
 721.979 284 721.979 284 686.783 220.5 c 128,-1,24
 651.586 157 651.586 157 599.857 107.5 c 128,-1,25
 548.13 58 548.13 58 472.752 27.5 c 128,-1,26
 397.374 -3 397.374 -3 311.374 -3 c 0,27,28
 228.374 -3 228.374 -3 166.752 27.5 c 128,-1,29
 105.13 58 105.13 58 73.4463 108 c 128,-1,30
 41.7627 158 41.7627 158 30.459 221.5 c 128,-1,31
 19.1562 285 19.1562 285 30.9697 352 c 128,-1,32
 42.7842 419 42.7842 419 75.9805 482.5 c 128,-1,33
 109.177 546 109.177 546 158.493 596 c 128,-1,34
 207.81 646 207.81 646 278.688 676.5 c 128,-1,35
 349.565 707 349.565 707 430.565 707 c 0,18,19
545.992 199 m 1,36,-1
 655.366 48 l 1,37,-1
 569.435 -14 l 1,38,-1
 472.943 125 l 1,39,-1
 419.345 201 l 1,40,-1
 502.748 260 l 1,41,-1
 545.992 199 l 1,36,-1
EndSplineSet
EndChar

StartChar: R
Encoding: 82 82 53
Width: 489
GlyphClass: 2
Flags: W
LayerCount: 2
Fore
SplineSet
110.534 700 m 1,0,-1
 317.71 701 l 2,1,2
 369.887 702 369.887 702 407.36 682 c 128,-1,3
 444.834 662 444.834 662 462.103 629.5 c 128,-1,4
 479.372 597 479.372 597 481.643 556 c 128,-1,5
 483.913 515 483.913 515 470.448 475.5 c 128,-1,6
 456.983 436 456.983 436 427.548 399.5 c 128,-1,7
 398.111 363 398.111 363 358.232 341 c 1,8,-1
 462.281 1 l 1,9,-1
 361.281 1 l 1,10,-1
 265.472 314 l 1,11,12
 254.295 313 254.295 313 239.295 313 c 2,13,-1
 134.119 312 l 1,14,-1
 83.2812 1 l 1,15,-1
 -9.71875 1 l 1,16,-1
 110.534 700 l 1,0,-1
188.075 618 m 1,17,-1
 148.578 394 l 1,18,-1
 257.578 394 l 2,19,20
 288.578 394 288.578 394 315.487 410.5 c 128,-1,21
 342.396 427 342.396 427 358.717 451.5 c 128,-1,22
 375.037 476 375.037 476 381.15 505 c 128,-1,23
 387.264 534 387.264 534 381.672 559 c 128,-1,24
 376.08 584 376.08 584 355.577 601 c 128,-1,25
 335.075 618 335.075 618 302.075 618 c 2,26,-1
 188.075 618 l 1,17,-1
EndSplineSet
EndChar

StartChar: S
Encoding: 83 83 54
Width: 528
GlyphClass: 2
Flags: W
LayerCount: 2
Fore
SplineSet
317.572 705 m 0,0,1
 377.572 705 377.572 705 412.484 696 c 128,-1,2
 447.397 687 447.397 687 478.461 659 c 1,3,-1
 420.646 592 l 1,4,5
 378.053 634 378.053 634 296.642 626 c 0,6,7
 259.937 622 259.937 622 231.705 598 c 128,-1,8
 203.473 574 203.473 574 194.184 544 c 128,-1,9
 184.894 514 184.894 514 203.663 481.5 c 128,-1,10
 222.432 449 222.432 449 272.082 430 c 2,11,-1
 348.145 402 l 2,12,13
 374.382 392 374.382 392 397.884 375 c 128,-1,14
 421.387 358 421.387 358 439.714 331.5 c 128,-1,15
 458.041 305 458.041 305 466.075 274 c 128,-1,16
 474.108 243 474.108 243 465.968 202.5 c 128,-1,17
 457.826 162 457.826 162 431.421 120 c 0,18,19
 336.147 -29 336.147 -29 122.262 0 c 0,20,21
 85.4951 7 85.4951 7 59.9941 15.5 c 128,-1,22
 34.4932 24 34.4932 24 24.375 29 c 128,-1,23
 14.2568 34 14.2568 34 -16.5693 52 c 1,24,-1
 18.5342 149 l 1,25,26
 93.834 111 93.834 111 146.365 97 c 0,27,28
 177.778 88 177.778 88 211.278 88 c 128,-1,29
 244.778 88 244.778 88 281.188 104.5 c 128,-1,30
 317.597 121 317.597 121 344.062 152 c 0,31,32
 382.526 200 382.526 200 368.902 247.5 c 128,-1,33
 355.277 295 355.277 295 305.275 312 c 0,34,35
 258.154 334 258.154 334 230.918 344 c 0,36,37
 172.092 362 172.092 362 137.763 397 c 128,-1,38
 103.435 432 103.435 432 95.8994 471.5 c 128,-1,39
 88.3643 511 88.3643 511 101.271 553 c 128,-1,40
 114.176 595 114.176 595 143.083 628.5 c 128,-1,41
 171.99 662 171.99 662 218.281 683.5 c 128,-1,42
 264.572 705 264.572 705 317.572 705 c 0,0,1
EndSplineSet
EndChar

StartChar: T
Encoding: 84 84 55
Width: 490
GlyphClass: 2
Flags: W
LayerCount: 2
Fore
SplineSet
76.4805 686 m 1,0,-1
 534.48 686 l 1,1,-1
 520.374 606 l 1,2,-1
 338.197 605 l 1,3,-1
 227.52 0 l 1,4,-1
 135.52 0 l 1,5,-1
 135.696 1 l 1,6,-1
 245.197 605 l 1,7,-1
 62.374 606 l 1,8,-1
 76.4805 686 l 1,0,-1
EndSplineSet
EndChar

StartChar: U
Encoding: 85 85 56
Width: 592
GlyphClass: 2
Flags: W
LayerCount: 2
Fore
SplineSet
205.221 685 m 5,0,-1
 133.34 266 l 6,1,2
 125.934 224 125.934 224 132.263 189 c 132,-1,3
 138.591 154 138.591 154 155.3 132.5 c 132,-1,4
 172.009 111 172.009 111 196.481 99.5 c 132,-1,5
 220.953 88 220.953 88 248.453 88 c 132,-1,6
 275.953 88 275.953 88 304.569 100 c 132,-1,7
 333.186 112 333.186 112 357.977 133.5 c 132,-1,8
 382.768 155 382.768 155 402.027 190.5 c 132,-1,9
 421.287 226 421.287 226 430.045 270 c 5,10,-1
 431.692 268 l 5,11,-1
 503.691 682 l 5,12,-1
 594.691 682 l 5,13,-1
 525.163 265 l 6,14,15
 514.702 200 514.702 200 484.621 148.5 c 132,-1,16
 454.54 97 454.54 97 414.486 65.5 c 132,-1,17
 374.432 34 374.432 34 327.022 17.5 c 132,-1,18
 279.613 1 279.613 1 233.289 2 c 132,-1,19
 186.966 3 186.966 3 146.052 20.5 c 132,-1,20
 105.137 38 105.137 38 76.6914 69.5 c 132,-1,21
 48.2461 101 48.2461 101 37.7383 152 c 132,-1,22
 27.2314 203 27.2314 203 39.9873 264 c 6,23,-1
 111.868 683 l 5,24,-1
 205.221 685 l 5,0,-1
EndSplineSet
EndChar

StartChar: V
Encoding: 86 86 57
Width: 675
GlyphClass: 2
Flags: W
LayerCount: 2
Fore
SplineSet
462.809 429 m 1,0,-1
 623.359 693 l 1,1,-1
 717.359 693 l 1,2,-1
 265.641 -37 l 1,3,-1
 248.041 39 l 1,4,-1
 86.3594 693 l 1,5,-1
 180.359 693 l 1,6,-1
 246.809 429 l 1,7,-1
 305.08 181 l 1,8,-1
 462.809 429 l 1,0,-1
EndSplineSet
EndChar

StartChar: W
Encoding: 87 87 58
Width: 865
GlyphClass: 2
Flags: W
LayerCount: 2
Fore
SplineSet
442.995 370 m 1,0,-1
 207.051 -21 l 1,1,-1
 89.7725 692 l 1,2,-1
 177.772 692 l 1,3,-1
 254.78 227 l 1,4,-1
 457.497 560 l 1,5,-1
 480.197 598 l 1,6,-1
 489.321 559 l 1,7,-1
 573.957 228 l 1,8,-1
 813.949 693 l 1,9,-1
 900.772 692 l 1,10,-1
 533.404 -19 l 1,11,-1
 442.995 370 l 1,0,-1
EndSplineSet
EndChar

StartChar: X
Encoding: 88 88 59
Width: 695
GlyphClass: 2
Flags: W
LayerCount: 2
Fore
SplineSet
-32.4502 0 m 1,0,-1
 49.9482 93 l 1,1,-1
 299.317 390 l 1,2,-1
 205.057 570 l 1,3,-1
 136.626 698 l 1,4,-1
 257.626 698 l 1,5,-1
 325.057 570 l 1,6,-1
 371.481 476 l 1,7,-1
 460.172 582 l 1,8,-1
 557.273 696 l 1,9,-1
 663.45 697 l 1,10,-1
 562.114 576 l 1,11,-1
 563.114 576 l 1,12,-1
 412.199 395 l 1,13,-1
 562.42 90 l 1,14,-1
 562.243 89 l 1,15,-1
 604.374 -1 l 1,16,-1
 500.55 0 l 1,17,-1
 458.361 84 l 1,18,-1
 340.211 310 l 1,19,-1
 158.948 93 l 1,20,-1
 86.5498 0 l 1,21,-1
 -32.4502 0 l 1,0,-1
EndSplineSet
EndChar

StartChar: Y
Encoding: 89 89 60
Width: 604
GlyphClass: 2
Flags: W
LayerCount: 2
Fore
SplineSet
77.0088 692 m 1,0,-1
 183.009 692 l 1,1,-1
 316.695 418 l 1,2,-1
 543.009 692 l 1,3,-1
 649.009 692 l 1,4,-1
 351.884 334 l 1,5,-1
 293.52 3 l 1,6,-1
 186.991 0 l 1,7,-1
 252.179 330 l 1,8,-1
 253.179 330 l 1,9,-1
 77.0088 692 l 1,0,-1
EndSplineSet
EndChar

StartChar: Z
Encoding: 90 90 61
Width: 795
GlyphClass: 2
Flags: W
LayerCount: 2
Fore
SplineSet
229.128 682 m 1,0,-1
 742.128 682 l 1,1,-1
 669.258 592 l 1,2,-1
 252.271 93 l 1,3,-1
 631.271 93 l 1,4,-1
 615.226 2 l 1,5,-1
 59.8721 0 l 1,6,7
 68.6357 10 68.6357 10 93.3965 37 c 128,-1,8
 118.157 64 118.157 64 142.271 93 c 2,9,-1
 561.14 597 l 1,10,-1
 214.14 597 l 1,11,-1
 229.128 682 l 1,0,-1
EndSplineSet
EndChar

StartChar: bracketleft
Encoding: 91 91 62
Width: 348
GlyphClass: 2
Flags: W
LayerCount: 2
Fore
SplineSet
-0.0673828 0 m 1,0,-1
 124.067 704 l 1,1,-1
 217.715 702 l 1,2,-1
 345.715 702 l 1,3,-1
 328.316 609 l 1,4,-1
 201.316 609 l 1,5,-1
 110.155 92 l 1,6,-1
 240.155 92 l 1,7,-1
 222.933 0 l 1,8,-1
 93.9326 0 l 1,9,-1
 -0.0673828 0 l 1,0,-1
EndSplineSet
EndChar

StartChar: backslash
Encoding: 92 92 63
Width: 492
GlyphClass: 2
Flags: W
LayerCount: 2
Fore
SplineSet
263.933 0 m 1,0,-1
 121.067 704 l 1,1,-1
 220.715 702 l 1,2,-1
 370.933 0 l 1,3,-1
 263.933 0 l 1,0,-1
EndSplineSet
EndChar

StartChar: bracketright
Encoding: 93 93 64
Width: 344
GlyphClass: 2
Flags: W
LayerCount: 2
Fore
SplineSet
221.933 0 m 1,0,-1
 127.933 0 l 1,1,-1
 -1.06738 0 l 1,2,-1
 14.1553 92 l 1,3,-1
 144.155 92 l 1,4,-1
 235.316 609 l 1,5,-1
 108.316 609 l 1,6,-1
 123.715 702 l 1,7,-1
 251.715 702 l 1,8,-1
 346.067 704 l 1,9,-1
 221.933 0 l 1,0,-1
EndSplineSet
EndChar

StartChar: asciicircum
Encoding: 94 94 65
Width: 605
GlyphClass: 2
Flags: W
LayerCount: 2
Fore
SplineSet
430.103 530 m 1,0,-1
 343.103 530 l 1,1,-1
 303.856 608 l 1,2,-1
 231.103 530 l 1,3,-1
 138.927 529 l 1,4,-1
 327.073 734 l 1,5,-1
 430.103 530 l 1,0,-1
EndSplineSet
EndChar

StartChar: underscore
Encoding: 95 95 66
Width: 559
GlyphClass: 2
Flags: W
LayerCount: 2
Fore
SplineSet
518.229 0 m 5,0,-1
 503.771 -82 l 5,1,-1
 40.7705 -82 l 5,2,-1
 55.2295 0 l 5,3,-1
 518.229 0 l 5,0,-1
EndSplineSet
EndChar

StartChar: grave
Encoding: 96 96 67
Width: 1000
GlyphClass: 2
Flags: W
LayerCount: 2
Fore
SplineSet
478.104 985 m 1,0,-1
 592.184 838 l 1,1,-1
 533.896 791 l 1,2,-1
 403.231 912 l 1,3,-1
 478.104 985 l 1,0,-1
EndSplineSet
EndChar

StartChar: a
Encoding: 97 97 68
Width: 509
GlyphClass: 2
Flags: W
LayerCount: 2
Fore
SplineSet
31.9756 207 m 4,0,1
 41.8506 263 41.8506 263 68.7852 308 c 132,-1,2
 95.7197 353 95.7197 353 132.48 380 c 132,-1,3
 169.241 407 169.241 407 211.71 421 c 132,-1,4
 254.179 435 254.179 435 296.237 432.5 c 132,-1,5
 338.297 430 338.297 430 372.299 413 c 4,6,7
 393.536 403 393.536 403 400.715 387 c 5,8,-1
 407.768 427 l 5,9,-1
 500.768 427 l 5,10,-1
 424.477 0 l 5,11,-1
 333.477 0 l 5,12,-1
 338.942 31 l 5,13,14
 297.534 6 297.534 6 250.447 -3 c 132,-1,15
 203.36 -12 203.36 -12 161.124 -2 c 132,-1,16
 118.887 8 118.887 8 86.207 32.5 c 132,-1,17
 53.5273 57 53.5273 57 38.0498 102.5 c 132,-1,18
 22.5723 148 22.5723 148 31.9756 207 c 4,0,1
118.505 210 m 4,19,20
 110.57 165 110.57 165 126.163 131.5 c 132,-1,21
 141.756 98 141.756 98 172.641 86 c 132,-1,22
 203.524 74 203.524 74 238.112 74.5 c 132,-1,23
 272.701 75 272.701 75 305.668 97.5 c 132,-1,24
 338.636 120 338.636 120 355.159 157 c 4,25,26
 361.805 172 361.805 172 367.945 212.5 c 132,-1,27
 374.087 253 374.087 253 374.379 266 c 4,28,29
 371.374 300 371.374 300 353.165 321.5 c 132,-1,30
 334.956 343 334.956 343 308.69 350 c 132,-1,31
 282.425 357 282.425 357 251.955 351.5 c 132,-1,32
 221.485 346 221.485 346 194.399 328.5 c 132,-1,33
 167.313 311 167.313 311 146.348 280 c 132,-1,34
 125.382 249 125.382 249 118.505 210 c 4,19,20
EndSplineSet
EndChar

StartChar: b
Encoding: 98 98 69
Width: 511
GlyphClass: 2
Flags: W
LayerCount: 2
Fore
SplineSet
445.193 207 m 0,0,1
 433.79 148 433.79 148 402.268 102.5 c 128,-1,2
 370.745 57 370.745 57 329.425 32.5 c 128,-1,3
 288.104 8 288.104 8 242.342 -2 c 128,-1,4
 196.578 -12 196.578 -12 152.665 -3 c 128,-1,5
 108.752 6 108.752 6 76.1602 31 c 1,6,-1
 70.6943 0 l 1,7,-1
 -20.3057 0 l 1,8,-1
 110.587 748 l 1,9,-1
 203.587 748 l 1,10,-1
 139.756 386 l 1,11,12
 149.167 394 149.167 394 169.106 405 c 128,-1,13
 189.046 416 189.046 416 202.751 420 c 0,14,15
 234.515 430 234.515 430 267.603 430.5 c 128,-1,16
 300.691 431 300.691 431 330.78 423 c 128,-1,17
 360.87 415 360.87 415 385.607 396.5 c 128,-1,18
 410.346 378 410.346 378 426.261 352 c 128,-1,19
 442.177 326 442.177 326 447.564 288.5 c 128,-1,20
 452.952 251 452.952 251 445.193 207 c 0,0,1
350.899 211 m 0,21,22
 358.834 256 358.834 256 343.829 290 c 128,-1,23
 328.824 324 328.824 324 299.616 337 c 128,-1,24
 270.408 350 270.408 350 236.82 349.5 c 128,-1,25
 203.232 349 203.232 349 171.265 326.5 c 128,-1,26
 139.298 304 139.298 304 122.421 265 c 0,27,28
 118.129 252 118.129 252 110.252 213 c 128,-1,29
 102.375 174 102.375 174 103.906 160 c 0,30,31
 107.382 123 107.382 123 131.591 101.5 c 128,-1,32
 155.8 80 155.8 80 189.212 79.5 c 128,-1,33
 222.624 79 222.624 79 256.24 91 c 128,-1,34
 289.855 103 289.855 103 316.498 135 c 128,-1,35
 343.141 167 343.141 167 350.899 211 c 0,21,22
EndSplineSet
EndChar

StartChar: c
Encoding: 99 99 70
Width: 421
GlyphClass: 2
Flags: W
LayerCount: 2
Fore
SplineSet
320.794 430 m 4,0,1
 373.736 424 373.736 424 406.21 404 c 0,2,3
 419.799 396 419.799 396 417.976 397 c 128,-1,4
 416.151 398 416.151 398 423.917 391 c 1,5,-1
 360.164 313 l 1,6,7
 354.927 323 354.927 323 334.014 332 c 128,-1,8
 313.101 341 313.101 341 297.453 343 c 0,9,10
 257.159 347 257.159 347 216.661 330 c 128,-1,11
 176.164 313 176.164 313 150.816 277 c 0,12,13
 114 227 114 227 117.389 181 c 128,-1,14
 120.777 135 120.777 135 163.841 107 c 0,15,16
 189.02 91 189.02 91 220.843 90 c 0,17,18
 267.313 87 267.313 87 306.841 107 c 0,19,20
 320.898 113 320.898 113 327.78 118 c 1,21,-1
 359.026 40 l 1,22,23
 305.797 -1 305.797 -1 210.974 0 c 0,24,25
 136.974 0 136.974 0 102.205 24 c 0,26,27
 28.8457 73 28.8457 73 20.54 153.5 c 128,-1,28
 12.2344 234 12.2344 234 72.8691 317 c 0,29,30
 117.625 378 117.625 378 185.327 407.5 c 128,-1,31
 253.028 437 253.028 437 320.794 430 c 4,0,1
EndSplineSet
EndChar

StartChar: d
Encoding: 100 100 71
Width: 515
GlyphClass: 2
Flags: W
LayerCount: 2
Fore
SplineSet
14.1621 207 m 0,0,1
 22.1543 258 22.1543 258 45.6484 300.5 c 128,-1,2
 69.1426 343 69.1426 343 100.727 369 c 128,-1,3
 132.312 395 132.312 395 170.897 412.5 c 128,-1,4
 209.483 430 209.483 430 247.247 431.5 c 128,-1,5
 285.012 433 285.012 433 320.777 426 c 0,6,7
 364.015 416 364.015 416 384.722 403 c 1,8,-1
 445.555 748 l 1,9,-1
 538.555 748 l 1,10,-1
 405.662 0 l 1,11,-1
 315.662 0 l 1,12,-1
 321.362 38 l 1,13,14
 318.01 36 318.01 36 304.658 25.5 c 128,-1,15
 291.308 15 291.308 15 283.778 12 c 0,16,17
 243.957 -4 243.957 -4 201.517 -6.5 c 128,-1,18
 159.075 -9 159.075 -9 122.367 4 c 128,-1,19
 85.6602 17 85.6602 17 57.5684 42 c 128,-1,20
 29.4766 67 29.4766 67 17.5586 110 c 128,-1,21
 5.64062 153 5.64062 153 14.1621 207 c 0,0,1
108.867 211 m 0,22,23
 101.109 167 101.109 167 116.967 135 c 128,-1,24
 132.824 103 132.824 103 162.208 91 c 128,-1,25
 191.592 79 191.592 79 225.181 79.5 c 128,-1,26
 258.769 80 258.769 80 290.56 101.5 c 128,-1,27
 322.351 123 322.351 123 338.875 160 c 0,28,29
 344.343 174 344.343 174 350.72 213 c 128,-1,30
 357.097 252 357.097 252 357.389 265 c 0,31,32
 353.266 304 353.266 304 329.233 326.5 c 128,-1,33
 305.2 349 305.2 349 272.289 349.5 c 128,-1,34
 239.377 350 239.377 350 205.085 337 c 128,-1,35
 170.792 324 170.792 324 143.797 290 c 128,-1,36
 116.802 256 116.802 256 108.867 211 c 0,22,23
EndSplineSet
EndChar

StartChar: e
Encoding: 101 101 72
Width: 500
GlyphClass: 2
Flags: W
LayerCount: 2
Fore
SplineSet
428.196 81 m 5,0,1
 393.848 45 393.848 45 335.439 20 c 4,2,3
 303.972 6 303.972 6 260.09 1 c 4,4,5
 239.737 -1 239.737 -1 219.737 -1 c 4,6,7
 192.737 -1 192.737 -1 169.442 3 c 4,8,9
 115.382 14 115.382 14 81.1123 46.5 c 132,-1,10
 46.8428 79 46.8428 79 36.4248 122 c 132,-1,11
 26.0068 165 26.0068 165 35.1475 214 c 132,-1,12
 44.2871 263 44.2871 263 70.458 306.5 c 132,-1,13
 96.6279 350 96.6279 350 143.035 383.5 c 132,-1,14
 189.441 417 189.441 417 245.381 428 c 4,15,16
 273.263 433 273.263 433 302.263 433 c 4,17,18
 329.263 433 329.263 433 351.558 429 c 4,19,20
 409.441 417 409.441 417 438.889 377 c 132,-1,21
 468.336 337 468.336 337 469.431 286.5 c 132,-1,22
 470.526 236 470.526 236 450.652 180 c 5,23,-1
 125.476 179 l 5,24,25
 130.07 137 130.07 137 154.691 115 c 132,-1,26
 179.312 93 179.312 93 239.43 88 c 4,27,28
 251.077 86 251.077 86 266.842 87.5 c 132,-1,29
 282.606 89 282.606 89 310.281 98.5 c 132,-1,30
 337.957 108 337.957 108 360.131 126 c 6,31,-1
 361.307 127 l 5,32,-1
 428.372 82 l 5,33,-1
 428.196 81 l 5,0,1
379.348 252 m 5,34,35
 388.686 356 388.686 356 287.686 356 c 4,36,37
 231.686 356 231.686 356 192.043 324 c 132,-1,38
 152.4 292 152.4 292 140.172 251 c 5,39,-1
 379.348 252 l 5,34,35
EndSplineSet
EndChar

StartChar: f
Encoding: 102 102 73
Width: 359
GlyphClass: 2
Flags: W
LayerCount: 2
Fore
SplineSet
24.3994 0 m 1,0,-1
 85.4082 346 l 1,1,-1
 35.4082 346 l 1,2,-1
 48.8086 422 l 1,3,-1
 102.809 422 l 1,4,5
 113.565 483 113.565 483 136.588 528.5 c 128,-1,6
 159.61 574 159.61 574 188.255 597.5 c 128,-1,7
 216.898 621 216.898 621 244.25 631.5 c 128,-1,8
 271.601 642 271.601 642 297.601 642 c 0,9,10
 314.601 642 314.601 642 326.983 638.5 c 128,-1,11
 339.366 635 339.366 635 351.396 629.5 c 128,-1,12
 363.427 624 363.427 624 371.074 622 c 1,13,-1
 309.85 547 l 1,14,-1
 294.437 556 l 1,15,16
 254.437 556 254.437 556 232.323 527 c 128,-1,17
 210.21 498 210.21 498 196.809 422 c 1,18,-1
 299.809 422 l 1,19,-1
 286.056 344 l 1,20,-1
 180.056 344 l 1,21,-1
 120.399 0 l 1,22,-1
 24.3994 0 l 1,0,-1
EndSplineSet
EndChar

StartChar: g
Encoding: 103 103 74
Width: 476
GlyphClass: 2
Flags: W
LayerCount: 2
Fore
SplineSet
137 224 m 0,0,1
 130.124 185 130.124 185 145.246 154.5 c 128,-1,2
 160.368 124 160.368 124 188.075 111 c 128,-1,3
 215.783 98 215.783 98 247.283 98 c 128,-1,4
 278.783 98 278.783 98 308.574 119.5 c 128,-1,5
 338.365 141 338.365 141 354.065 179 c 1,6,7
 355.829 189 355.829 189 361.325 214.5 c 128,-1,8
 366.821 240 366.821 240 367.938 252 c 0,9,10
 373.757 285 373.757 285 361.312 308 c 128,-1,11
 348.867 331 348.867 331 325.454 340 c 128,-1,12
 302.041 349 302.041 349 272.101 346.5 c 128,-1,13
 242.16 344 242.16 344 214.779 330.5 c 128,-1,14
 187.398 317 187.398 317 165.462 289 c 128,-1,15
 143.524 261 143.524 261 137 224 c 0,0,1
421.562 6 m 2,16,17
 402.518 -102 402.518 -102 306.586 -164 c 0,18,19
 252.767 -197 252.767 -197 186.502 -198.5 c 128,-1,20
 120.238 -200 120.238 -200 73.1748 -172 c 0,21,22
 45.9961 -156 45.9961 -156 40.1133 -152.5 c 128,-1,23
 34.2305 -149 34.2305 -149 25.8174 -140 c 1,24,-1
 74.3369 -69 l 1,25,26
 76.1602 -70 76.1602 -70 127.047 -99 c 0,27,28
 148.931 -111 148.931 -111 177.578 -113 c 128,-1,29
 206.226 -115 206.226 -115 234.136 -107 c 128,-1,30
 262.047 -99 262.047 -99 287.573 -79 c 128,-1,31
 313.1 -59 313.1 -59 326.214 -30 c 1,32,-1
 330.503 0 l 1,33,-1
 341.906 59 l 1,34,35
 315.851 36 315.851 36 281.411 25 c 128,-1,36
 246.972 14 246.972 14 212.148 15 c 128,-1,37
 177.324 16 177.324 16 144.793 30 c 128,-1,38
 112.262 44 112.262 44 88.4053 67.5 c 128,-1,39
 64.5488 91 64.5488 91 53.8379 129.5 c 128,-1,40
 43.126 168 43.126 168 50.2373 214 c 0,41,42
 59.0537 264 59.0537 264 83.5479 306.5 c 128,-1,43
 108.041 349 108.041 349 142.214 375.5 c 128,-1,44
 176.387 402 176.387 402 215.531 417 c 128,-1,45
 254.677 432 254.677 432 295 431 c 128,-1,46
 335.324 430 335.324 430 369.326 413 c 0,47,48
 390.562 403 390.562 403 397.742 387 c 1,49,-1
 403.795 427 l 1,50,-1
 497.795 427 l 1,51,-1
 421.562 6 l 2,16,17
EndSplineSet
EndChar

StartChar: h
Encoding: 104 104 75
Width: 487
GlyphClass: 2
Flags: W
LayerCount: 2
Fore
SplineSet
411.521 229 m 0,0,1
 399.178 159 399.178 159 392.301 120 c 128,-1,2
 385.425 81 385.425 81 383.749 71.5 c 128,-1,3
 382.074 62 382.074 62 378.4 44 c 128,-1,4
 374.727 26 374.727 26 369.966 -1 c 1,5,-1
 275.966 -1 l 1,6,7
 281.608 31 281.608 31 287.75 63 c 128,-1,8
 293.893 95 293.893 95 300.329 131.5 c 128,-1,9
 306.765 168 306.765 168 318.579 235 c 0,10,11
 325.455 274 325.455 274 315.128 300.5 c 128,-1,12
 304.801 327 304.801 327 284.152 337.5 c 128,-1,13
 263.504 348 263.504 348 236.651 346 c 128,-1,14
 209.799 344 209.799 344 184.918 330.5 c 128,-1,15
 160.037 317 160.037 317 140.629 292 c 128,-1,16
 121.221 267 121.221 267 115.579 235 c 2,17,-1
 73.9658 -1 l 1,18,-1
 -16.0342 -1 l 1,19,-1
 113.977 742 l 1,20,-1
 208.034 748 l 1,21,-1
 144.381 387 l 1,22,23
 155.791 395 155.791 395 174.23 406 c 128,-1,24
 192.67 417 192.67 417 206.376 421 c 0,25,26
 240.315 432 240.315 432 274.315 432 c 0,27,28
 362.315 432 362.315 432 395.117 377 c 128,-1,29
 427.919 322 427.919 322 411.521 229 c 0,0,1
EndSplineSet
EndChar

StartChar: i
Encoding: 105 105 76
Width: 207
GlyphClass: 2
Flags: W
LayerCount: 2
Fore
SplineSet
94.7715 545 m 0,0,1
 98.8271 568 98.8271 568 117.707 581.5 c 128,-1,2
 136.588 595 136.588 595 156.176 595.5 c 128,-1,3
 175.765 596 175.765 596 189.972 583 c 128,-1,4
 204.18 570 204.18 570 199.948 546 c 0,5,6
 195.54 521 195.54 521 176.483 506.5 c 128,-1,7
 157.426 492 157.426 492 137.926 492 c 128,-1,8
 118.426 492 118.426 492 104.395 506 c 128,-1,9
 90.3633 520 90.3633 520 94.7715 545 c 0,0,1
83.0225 433 m 1,10,-1
 175.022 433 l 1,11,-1
 98.3203 -2 l 1,12,-1
 8.32031 -2 l 1,13,-1
 83.0225 433 l 1,10,-1
EndSplineSet
EndChar

StartChar: j
Encoding: 106 106 77
Width: 207
GlyphClass: 2
Flags: W
LayerCount: 2
Fore
SplineSet
103.588 545 m 0,0,1
 107.644 568 107.644 568 126.523 581.5 c 128,-1,2
 145.404 595 145.404 595 164.992 595.5 c 128,-1,3
 184.58 596 184.58 596 198.788 583 c 128,-1,4
 212.996 570 212.996 570 208.765 546 c 0,5,6
 204.356 521 204.356 521 185.299 506.5 c 128,-1,7
 166.242 492 166.242 492 146.742 492 c 128,-1,8
 127.242 492 127.242 492 113.211 506 c 128,-1,9
 99.1797 520 99.1797 520 103.588 545 c 0,0,1
91.3105 430 m 5,10,-1
 183.311 430 l 5,11,-1
 88.5039 -102 l 5,12,-1
 -2.49609 -102 l 5,13,-1
 91.3105 430 l 5,10,-1
EndSplineSet
EndChar

StartChar: k
Encoding: 107 107 78
Width: 490
GlyphClass: 2
Flags: W
LayerCount: 2
Fore
SplineSet
209.034 748 m 1,0,-1
 118.107 238 l 1,1,-1
 182.806 293 l 1,2,-1
 338.081 425 l 1,3,-1
 455.904 424 l 1,4,-1
 225.168 227 l 1,5,-1
 411.142 0 l 1,6,-1
 292.966 -1 l 1,7,-1
 159.53 161 l 1,8,-1
 114.229 216 l 1,9,-1
 76.1416 0 l 1,10,-1
 -16.8584 0 l 1,11,-1
 116.034 748 l 1,12,-1
 209.034 748 l 1,0,-1
EndSplineSet
EndChar

StartChar: l
Encoding: 108 108 79
Width: 210
GlyphClass: 2
Flags: W
LayerCount: 2
Fore
SplineSet
124.021 238 m 5,0,-1
 82.0566 0 l 5,1,-1
 -10.9434 0 l 5,2,-1
 126.943 782 l 5,3,-1
 220.943 782 l 5,4,-1
 124.021 238 l 5,0,-1
EndSplineSet
EndChar

StartChar: m
Encoding: 109 109 80
Width: 746
GlyphClass: 2
Flags: W
LayerCount: 2
Fore
SplineSet
292.175 433 m 0,0,1
 327.175 433 327.175 433 349.5 423.5 c 128,-1,2
 371.824 414 371.824 414 390.122 393 c 0,3,4
 397.888 386 397.888 386 405.623 384.5 c 128,-1,5
 413.358 383 413.358 383 417.535 384 c 128,-1,6
 421.711 385 421.711 385 432.445 392 c 128,-1,7
 443.18 399 443.18 399 447.532 401 c 0,8,9
 471.178 416 471.178 416 500.588 424 c 0,10,11
 516.646 430 516.646 430 526.734 430.5 c 128,-1,12
 536.822 431 536.822 431 549.646 430 c 0,13,14
 636.646 430 636.646 430 670.095 373 c 128,-1,15
 703.545 316 703.545 316 687.146 223 c 0,16,17
 674.803 153 674.803 153 668.191 115.5 c 128,-1,18
 661.579 78 661.579 78 660.08 69.5 c 128,-1,19
 658.581 61 658.581 61 655.26 45 c 128,-1,20
 651.938 29 651.938 29 647.002 1 c 1,21,-1
 551.825 0 l 1,22,23
 557.468 32 557.468 32 562.493 60.5 c 128,-1,24
 567.519 89 567.519 89 574.014 123 c 128,-1,25
 580.509 157 580.509 157 592.499 225 c 0,26,27
 599.199 263 599.199 263 590.548 290.5 c 128,-1,28
 581.897 318 581.897 318 564.102 330.5 c 128,-1,29
 546.306 343 546.306 343 522.806 343 c 128,-1,30
 499.306 343 499.306 343 477.277 331.5 c 128,-1,31
 455.25 320 455.25 320 437.342 295 c 128,-1,32
 419.434 270 419.434 270 413.438 236 c 0,33,34
 412.381 230 412.381 230 370.825 0 c 1,35,-1
 283.825 0 l 1,36,37
 289.644 33 289.644 33 295.11 64 c 128,-1,38
 300.576 95 300.576 95 307.336 130.5 c 128,-1,39
 314.096 166 314.096 166 325.909 233 c 0,40,41
 332.786 272 332.786 272 323.635 299.5 c 128,-1,42
 314.484 327 314.484 327 296.012 338.5 c 128,-1,43
 277.54 350 277.54 350 253.451 349.5 c 128,-1,44
 229.363 349 229.363 349 206.836 337.5 c 128,-1,45
 184.308 326 184.308 326 165.988 301.5 c 128,-1,46
 147.668 277 147.668 277 142.025 245 c 2,47,-1
 98.8252 0 l 1,48,-1
 8.8252 0 l 1,49,-1
 83.4697 429 l 1,50,-1
 176.47 429 l 1,51,-1
 170.298 394 l 1,52,53
 189.414 406 189.414 406 200.472 412 c 128,-1,54
 211.53 418 211.53 418 237.853 425.5 c 128,-1,55
 264.175 433 264.175 433 292.175 433 c 0,0,1
EndSplineSet
EndChar

StartChar: n
Encoding: 110 110 81
Width: 426
GlyphClass: 2
Flags: W
LayerCount: 2
Fore
SplineSet
406.733 230 m 2,0,1
 365.178 0 l 1,2,-1
 271.178 0 l 1,3,4
 276.997 33 276.997 33 282.728 65.5 c 128,-1,5
 288.458 98 288.458 98 295.482 135 c 128,-1,6
 302.506 172 302.506 172 314.32 239 c 0,7,8
 321.197 278 321.197 278 311.958 305 c 128,-1,9
 302.719 332 302.719 332 284.158 343 c 128,-1,10
 265.598 354 265.598 354 241.333 352.5 c 128,-1,11
 217.068 351 217.068 351 193.864 338.5 c 128,-1,12
 170.66 326 170.66 326 152.752 301 c 128,-1,13
 134.844 276 134.844 276 129.201 244 c 2,14,-1
 88.1777 0 l 1,15,-1
 -1.82227 0 l 1,16,-1
 72.8223 429 l 1,17,-1
 165.822 429 l 1,18,-1
 160.003 396 l 1,19,20
 165.532 399 165.532 399 210.235 420 c 0,21,22
 230.822 429 230.822 429 285.822 429 c 0,23,24
 371.822 429 371.822 429 397.741 377.5 c 128,-1,25
 423.66 326 423.66 326 406.733 230 c 2,0,1
EndSplineSet
EndChar

StartChar: o
Encoding: 111 111 82
Width: 499
GlyphClass: 2
Flags: W
LayerCount: 2
Fore
SplineSet
273.567 362 m 4,0,1
 230.567 362 230.567 362 194.864 341 c 132,-1,2
 159.162 320 159.162 320 139.284 289.5 c 132,-1,3
 119.405 259 119.405 259 112.558 223 c 132,-1,4
 105.71 187 105.71 187 114.244 156 c 132,-1,5
 122.778 125 122.778 125 150.663 104.5 c 132,-1,6
 178.549 84 178.549 84 221.549 84 c 4,7,8
 287.549 84 287.549 84 334.131 127 c 4,9,10
 365.244 156 365.244 156 379.386 196.5 c 132,-1,11
 393.526 237 393.526 237 388.463 273.5 c 132,-1,12
 383.398 310 383.398 310 353.482 336 c 132,-1,13
 323.567 362 323.567 362 273.567 362 c 4,0,1
287.263 434 m 4,14,15
 359.263 434 359.263 434 405.62 402 c 132,-1,16
 451.979 370 451.979 370 466.515 322 c 132,-1,17
 481.051 274 481.051 274 470.588 217.5 c 132,-1,18
 460.126 161 460.126 161 427.574 112.5 c 132,-1,19
 395.021 64 395.021 64 336.38 32 c 132,-1,20
 277.737 0 277.737 0 206.737 0 c 4,21,22
 134.737 0 134.737 0 87.3799 32 c 132,-1,23
 40.0215 64 40.0215 64 25.5742 112.5 c 132,-1,24
 11.126 161 11.126 161 22.0879 217.5 c 132,-1,25
 33.0508 274 33.0508 274 66.0146 322 c 132,-1,26
 98.9785 370 98.9785 370 157.62 402 c 132,-1,27
 216.263 434 216.263 434 287.263 434 c 4,14,15
EndSplineSet
EndChar

StartChar: p
Encoding: 112 112 83
Width: 507
GlyphClass: 2
Flags: W
LayerCount: 2
Fore
SplineSet
484.041 207 m 0,0,1
 472.638 148 472.638 148 441.615 102.5 c 128,-1,2
 410.593 57 410.593 57 368.772 32.5 c 128,-1,3
 326.952 8 326.952 8 281.189 -2 c 128,-1,4
 235.426 -12 235.426 -12 191.513 -3 c 128,-1,5
 147.6 6 147.6 6 116.008 31 c 1,6,-1
 74.0996 -201 l 1,7,-1
 -15.9004 -201 l 1,8,-1
 93.833 427 l 1,9,-1
 186.833 427 l 1,10,-1
 181.19 395 l 1,11,12
 221.599 420 221.599 420 269.186 429 c 128,-1,13
 316.772 438 316.772 438 359.333 427 c 128,-1,14
 401.894 416 401.894 416 434.81 390 c 128,-1,15
 467.725 364 467.725 364 481.761 316 c 128,-1,16
 495.797 268 495.797 268 484.041 207 c 0,0,1
390.747 211 m 0,17,18
 398.682 256 398.682 256 383.677 290 c 128,-1,19
 368.672 324 368.672 324 338.964 337 c 128,-1,20
 309.256 350 309.256 350 276.168 349.5 c 128,-1,21
 243.08 349 243.08 349 211.112 326.5 c 128,-1,22
 179.146 304 179.146 304 161.269 265 c 0,23,24
 156.976 252 156.976 252 149.6 213 c 128,-1,25
 142.223 174 142.223 174 142.754 160 c 0,26,27
 146.229 123 146.229 123 170.438 101.5 c 128,-1,28
 194.647 80 194.647 80 228.06 79.5 c 128,-1,29
 261.472 79 261.472 79 295.088 91 c 128,-1,30
 328.703 103 328.703 103 355.846 135 c 128,-1,31
 382.988 167 382.988 167 390.747 211 c 0,17,18
EndSplineSet
EndChar

StartChar: q
Encoding: 113 113 84
Width: 497
GlyphClass: 2
Flags: W
LayerCount: 2
Fore
SplineSet
50.124 207 m 0,0,1
 57.0586 252 57.0586 252 76.2588 290 c 128,-1,2
 95.459 328 95.459 328 121.632 354.5 c 128,-1,3
 147.805 381 147.805 381 180.066 399.5 c 128,-1,4
 212.328 418 212.328 418 246.151 425.5 c 128,-1,5
 279.974 433 279.974 433 313.297 432 c 128,-1,6
 346.621 431 346.621 431 375.505 419 c 0,7,8
 406.565 408 406.565 408 417.862 387 c 1,9,-1
 424.915 427 l 1,10,-1
 517.915 427 l 1,11,-1
 406.182 -201 l 1,12,-1
 316.182 -201 l 1,13,-1
 356.09 31 l 1,14,15
 315.682 6 315.682 6 268.595 -3 c 128,-1,16
 221.508 -12 221.508 -12 179.271 -2 c 128,-1,17
 137.034 8 137.034 8 103.854 32.5 c 128,-1,18
 70.6748 57 70.6748 57 55.6973 102.5 c 128,-1,19
 40.7207 148 40.7207 148 50.124 207 c 0,0,1
144.829 211 m 0,20,21
 137.07 167 137.07 167 152.928 135 c 128,-1,22
 168.785 103 168.785 103 198.17 91 c 128,-1,23
 227.554 79 227.554 79 261.142 79.5 c 128,-1,24
 294.73 80 294.73 80 326.521 101.5 c 128,-1,25
 358.312 123 358.312 123 374.836 160 c 0,26,27
 380.305 174 380.305 174 386.682 213 c 128,-1,28
 393.059 252 393.059 252 393.351 265 c 0,29,30
 389.228 304 389.228 304 365.194 326.5 c 128,-1,31
 341.162 349 341.162 349 308.25 349.5 c 128,-1,32
 275.338 350 275.338 350 241.046 337 c 128,-1,33
 206.754 324 206.754 324 179.759 290 c 128,-1,34
 152.764 256 152.764 256 144.829 211 c 0,20,21
EndSplineSet
EndChar

StartChar: r
Encoding: 114 114 85
Width: 343
GlyphClass: 2
Flags: W
LayerCount: 2
Fore
SplineSet
299.792 440 m 0,0,1
 328.792 440 328.792 440 354.5 427 c 1,2,-1
 304.041 345 l 1,3,4
 278.099 351 278.099 351 244.276 343.5 c 128,-1,5
 210.454 336 210.454 336 185.575 314 c 0,6,7
 164.048 294 164.048 294 144.494 262.5 c 128,-1,8
 124.939 231 124.939 231 120.179 204 c 2,9,-1
 83.208 0 l 1,10,-1
 -6.79199 0 l 1,11,-1
 67.8525 429 l 1,12,-1
 160.853 429 l 1,13,-1
 144.688 343 l 1,14,-1
 145.864 344 l 1,15,16
 156.684 377 156.684 377 185.239 400 c 128,-1,17
 213.794 423 213.794 423 242.793 431.5 c 128,-1,18
 271.792 440 271.792 440 299.792 440 c 0,0,1
EndSplineSet
EndChar

StartChar: s
Encoding: 115 115 86
Width: 416
GlyphClass: 2
Flags: W
LayerCount: 2
Fore
SplineSet
19.9658 74 m 1,0,-1
 98.5449 134 l 1,1,2
 124.963 91 124.963 91 182.729 84 c 0,3,4
 212.023 80 212.023 80 234.875 90.5 c 128,-1,5
 257.727 101 257.727 101 266.548 117 c 128,-1,6
 275.369 133 275.369 133 267.778 149.5 c 128,-1,7
 260.188 166 260.188 166 234.599 174 c 0,8,9
 162.478 196 162.478 196 146.535 202 c 0,10,11
 111.356 218 111.356 218 100.322 249 c 128,-1,12
 89.2891 280 89.2891 280 95.2842 314 c 0,13,14
 98.458 332 98.458 332 108.896 351.5 c 128,-1,15
 119.335 371 119.335 371 138.773 390.5 c 128,-1,16
 158.211 410 158.211 410 193.415 422.5 c 128,-1,17
 228.619 435 228.619 435 272.619 435 c 0,18,19
 356.619 435 356.619 435 389.391 394 c 1,20,-1
 329.105 330 l 1,21,22
 310.042 358 310.042 358 273.924 363 c 0,23,24
 261.276 365 261.276 365 245.336 362.5 c 128,-1,25
 229.395 360 229.395 360 212.955 349 c 128,-1,26
 196.516 338 196.516 338 192.989 318 c 0,27,28
 186.642 282 186.642 282 230.997 267 c 2,29,-1
 276.41 258 l 2,30,31
 324.589 242 324.589 242 346.299 212 c 128,-1,32
 368.009 182 368.009 182 363.778 149.5 c 128,-1,33
 359.548 117 359.548 117 343.434 88 c 128,-1,34
 327.32 59 327.32 59 302.794 39 c 0,35,36
 273.562 15 273.562 15 240.063 6.5 c 128,-1,37
 206.564 -2 206.564 -2 163.389 -3 c 0,38,39
 129.212 -4 129.212 -4 80.5029 17.5 c 128,-1,40
 31.7939 39 31.7939 39 19.9658 74 c 1,0,-1
EndSplineSet
EndChar

StartChar: t
Encoding: 116 116 87
Width: 243
GlyphClass: 2
Flags: W
LayerCount: 2
Fore
SplineSet
196.271 422 m 1,0,-1
 244.271 422 l 1,1,-1
 229.459 338 l 1,2,-1
 180.459 338 l 1,3,-1
 120.508 -2 l 1,4,-1
 25.5078 -2 l 1,5,-1
 85.8115 340 l 1,6,-1
 42.8115 340 l 1,7,-1
 57.2705 422 l 1,8,-1
 103.271 422 l 1,9,10
 119.492 514 l 1,11,-1
 212.492 514 l 1,12,13
 202.266 456 202.266 456 196.271 422 c 1,0,-1
EndSplineSet
EndChar

StartChar: u
Encoding: 117 117 88
Width: 472
GlyphClass: 2
Flags: W
LayerCount: 2
Fore
SplineSet
38.2666 199 m 4,0,1
 50.6094 269 50.6094 269 57.9863 308 c 132,-1,2
 65.3633 347 65.3633 347 67.0381 356.5 c 132,-1,3
 68.7139 366 68.7139 366 71.8877 384 c 132,-1,4
 75.0615 402 75.0615 402 79.8223 429 c 5,5,-1
 173.822 429 l 5,6,7
 131.856 191 131.856 191 131.68 190 c 4,8,9
 124.804 151 124.804 151 133.983 126.5 c 132,-1,10
 143.163 102 143.163 102 162.341 94.5 c 132,-1,11
 181.519 87 181.519 87 205.988 92.5 c 132,-1,12
 230.458 98 230.458 98 253.779 114 c 132,-1,13
 277.101 130 277.101 130 295.861 157 c 132,-1,14
 314.622 184 314.622 184 320.265 216 c 6,15,-1
 356.822 429 l 5,16,-1
 447.822 429 l 5,17,-1
 373.178 0 l 5,18,-1
 280.178 0 l 5,19,-1
 289.463 64 l 5,20,21
 280.581 59 280.581 59 260.23 40 c 132,-1,22
 239.881 21 239.881 21 228.999 16 c 4,23,24
 194.178 0 194.178 0 160.178 0 c 4,25,26
 73.1777 0 73.1777 0 47.2588 51.5 c 132,-1,27
 21.3398 103 21.3398 103 38.2666 199 c 4,0,1
EndSplineSet
EndChar

StartChar: v
Encoding: 118 118 89
Width: 467
GlyphClass: 2
Flags: W
LayerCount: 2
Fore
SplineSet
478.996 429 m 1,0,-1
 188.828 -37 l 1,1,-1
 70.6436 427 l 1,2,-1
 166.819 428 l 1,3,-1
 228.267 181 l 1,4,-1
 388.172 430 l 1,5,-1
 478.996 429 l 1,0,-1
EndSplineSet
EndChar

StartChar: w
Encoding: 119 119 90
Width: 585
GlyphClass: 2
Flags: W
LayerCount: 2
Fore
SplineSet
337.127 342 m 1,0,-1
 392.032 177 l 1,1,-1
 528.644 430 l 1,2,-1
 620.467 429 l 1,3,-1
 371.356 -31 l 1,4,-1
 305.093 166 l 1,5,-1
 161.356 -31 l 1,6,-1
 72.1143 427 l 1,7,-1
 168.291 428 l 1,8,-1
 217.504 174 l 1,9,-1
 337.127 342 l 1,10,-1
 337.127 342 l 1,0,-1
EndSplineSet
EndChar

StartChar: x
Encoding: 120 120 91
Width: 492
GlyphClass: 2
Flags: W
LayerCount: 2
Fore
SplineSet
-4.64551 0 m 1,0,-1
 77.7529 93 l 1,1,-1
 198.614 234 l 1,2,-1
 148.424 335 l 1,3,-1
 98.6455 427 l 1,4,-1
 218.822 428 l 1,5,-1
 258.424 335 l 1,6,-1
 267.897 315 l 1,7,-1
 362.822 428 l 1,8,-1
 468.822 428 l 1,9,-1
 367.663 308 l 1,10,-1
 306.791 235 l 1,11,-1
 362.514 120 l 1,12,-1
 421.178 -1 l 1,13,-1
 315.354 0 l 1,14,-1
 258.455 114 l 1,15,-1
 238.509 154 l 1,16,-1
 187.753 93 l 1,17,-1
 115.354 0 l 1,18,-1
 -4.64551 0 l 1,0,-1
EndSplineSet
EndChar

StartChar: y
Encoding: 121 121 92
Width: 462
GlyphClass: 2
Flags: W
LayerCount: 2
Fore
SplineSet
175.947 75 m 1,0,-1
 74.0137 427 l 1,1,-1
 170.19 428 l 1,2,-1
 244.638 181 l 1,3,-1
 416.543 430 l 1,4,-1
 507.366 429 l 1,5,-1
 90.457 -200 l 1,6,-1
 -16.543 -200 l 1,7,-1
 175.947 75 l 1,0,-1
EndSplineSet
EndChar

StartChar: z
Encoding: 122 122 93
Width: 446
GlyphClass: 2
Flags: W
LayerCount: 2
Fore
SplineSet
81.6279 346 m 1,0,-1
 95.3809 424 l 1,1,-1
 448.381 424 l 1,2,-1
 380.099 343 l 1,3,-1
 380.099 343 l 1,4,-1
 166.783 86 l 1,5,-1
 394.783 86 l 1,6,-1
 379.619 0 l 1,7,-1
 -8.38086 0 l 1,8,-1
 288.804 347 l 1,9,-1
 81.6279 346 l 1,0,-1
EndSplineSet
EndChar

StartChar: braceleft
Encoding: 123 123 94
Width: 268
GlyphClass: 2
Flags: W
LayerCount: 2
Fore
SplineSet
104.055 144 m 0,0,1
 94.0693 42 94.0693 42 167.432 -24 c 1,2,-1
 147.683 -136 l 1,3,4
 76.3838 -98 76.3838 -98 38.5791 -26 c 128,-1,5
 0.774414 46 0.774414 46 9.58398 147 c 0,6,7
 9.75977 148 9.75977 148 11.7588 156.5 c 128,-1,8
 13.7578 165 13.7578 165 16.2852 176.5 c 128,-1,9
 18.8135 188 18.8135 188 20.6338 204 c 128,-1,10
 22.4551 220 22.4551 220 22.6006 235 c 128,-1,11
 22.7451 250 22.7451 250 20.4785 265.5 c 128,-1,12
 18.2109 281 18.2109 281 12.6514 292 c 128,-1,13
 7.09082 303 7.09082 303 -3.58691 310.5 c 128,-1,14
 -14.2646 318 -14.2646 318 -30.2646 318 c 1,15,16
 -0.264648 318 -0.264648 318 21.1729 346 c 128,-1,17
 42.6094 374 42.6094 374 51.5166 407.5 c 128,-1,18
 60.4238 441 60.4238 441 65.8018 471.5 c 128,-1,19
 71.1797 502 71.1797 502 72.1797 502 c 1,20,21
 96.6357 601 96.6357 601 159.891 670.5 c 128,-1,22
 223.146 740 223.146 740 309.317 775 c 1,23,-1
 291.155 672 l 1,24,25
 197.752 613 197.752 613 166.709 505 c 0,26,27
 166.532 504 166.532 504 160.742 474 c 128,-1,28
 154.953 444 154.953 444 146.046 410.5 c 128,-1,29
 137.139 377 137.139 377 115.613 348.5 c 128,-1,30
 94.0879 320 94.0879 320 64.0879 320 c 1,31,32
 80.0879 320 80.0879 320 91.2656 312.5 c 128,-1,33
 102.443 305 102.443 305 107.415 293.5 c 128,-1,34
 112.388 282 112.388 282 115.066 266 c 128,-1,35
 117.745 250 117.745 250 117.012 234.5 c 128,-1,36
 116.279 219 116.279 219 114.37 202.5 c 128,-1,37
 112.46 186 112.46 186 110.433 174.5 c 128,-1,38
 108.405 163 108.405 163 106.818 154 c 0,39,40
 104.23 145 104.23 145 104.055 144 c 0,0,1
104.055 144 m 0,41,-1
EndSplineSet
EndChar

StartChar: bar
Encoding: 124 124 95
Width: 207
GlyphClass: 2
Flags: W
LayerCount: 2
Fore
SplineSet
131.516 238 m 5,0,-1
 87.5498 0 l 5,1,-1
 -5.4502 0 l 5,2,-1
 117.45 697 l 5,3,-1
 211.45 697 l 5,4,-1
 131.516 238 l 5,0,-1
EndSplineSet
EndChar

StartChar: braceright
Encoding: 125 125 96
Width: 268
GlyphClass: 2
Flags: W
LayerCount: 2
Fore
SplineSet
33.0547 144 m 4,0,1
 33.2305 145 33.2305 145 34.8184 154 c 0,40,41
 35.4053 163 35.4053 163 37.4326 174.5 c 128,-1,39
 39.46 186 39.46 186 43.3701 202.5 c 128,-1,38
 47.2793 219 47.2793 219 52.0117 234.5 c 128,-1,37
 56.7451 250 56.7451 250 64.5664 266 c 128,-1,36
 72.3877 282 72.3877 282 81.915 293.5 c 128,-1,35
 91.4434 305 91.4434 305 105.266 312.5 c 128,-1,34
 119.088 320 119.088 320 135.088 320 c 1,32,33
 105.088 320 105.088 320 93.1133 348.5 c 128,-1,31
 81.1387 377 81.1387 377 84.5459 410.5 c 128,-1,30
 87.9531 444 87.9531 444 92.7422 474 c 128,-1,29
 97.5322 504 97.5322 504 97.709 505 c 0,27,28
 104.752 613 104.752 613 32.1553 672 c 1,25,26
 50.3174 775 l 1,24,-1
 124.146 740 124.146 740 162.891 670.5 c 128,-1,23
 201.636 601 201.636 601 191.18 502 c 0,21,22
 191.003 501 191.003 501 186.89 472 c 0,19,20
 181.424 441 181.424 441 178.517 407.5 c 128,-1,18
 175.609 374 175.609 374 187.173 346 c 128,-1,17
 198.735 318 198.735 318 228.735 318 c 1,15,16
 212.735 318 212.735 318 199.413 310.5 c 128,-1,14
 186.091 303 186.091 303 176.651 292 c 128,-1,13
 167.211 281 167.211 281 158.979 265.5 c 128,-1,12
 150.745 250 150.745 250 146.101 235 c 128,-1,11
 141.455 220 141.455 220 137.634 204 c 128,-1,10
 133.813 188 133.813 188 132.285 176.5 c 128,-1,9
 130.758 165 130.758 165 129.759 156.5 c 128,-1,8
 128.76 148 128.76 148 128.584 147 c 0,6,7
 101.774 46 101.774 46 38.5791 -26 c 128,-1,5
 -24.6162 -98 -24.6162 -98 -109.317 -136 c 1,3,4
 -89.5684 -24 l 1,2,-1
 7.06934 42 7.06934 42 33.0547 144 c 4,0,1
33.0547 144 m 0,42,-1
EndSplineSet
EndChar

StartChar: asciitilde
Encoding: 126 126 97
Width: 496
GlyphClass: 2
Flags: W
LayerCount: 2
Fore
SplineSet
283.764 559 m 1,0,1
 288.295 545 288.295 545 302.03 543.5 c 128,-1,2
 315.766 542 315.766 542 326.617 552.5 c 128,-1,3
 337.469 563 337.469 563 332.938 577 c 1,4,5
 333.113 578 l 1,6,7
 332.29 579 l 1,8,-1
 377.64 598 l 1,9,-1
 377.464 597 l 1,10,11
 383.231 573 383.231 573 374.529 552 c 128,-1,12
 365.826 531 365.826 531 345.799 519.5 c 128,-1,13
 325.771 508 325.771 508 304.565 504 c 128,-1,14
 283.36 500 283.36 500 264.947 509 c 128,-1,15
 246.534 518 246.534 518 240.236 539 c 1,16,-1
 283.764 559 l 1,0,1
240.236 539 m 1,17,18
 235.705 553 235.705 553 221.97 554.5 c 128,-1,19
 208.234 556 208.234 556 197.383 545.5 c 128,-1,20
 186.531 535 186.531 535 191.062 521 c 1,21,22
 190.887 520 l 1,23,24
 191.71 519 l 1,25,-1
 146.36 500 l 1,26,-1
 146.536 501 l 1,27,28
 140.769 525 140.769 525 149.471 546 c 128,-1,29
 158.174 567 158.174 567 178.201 578.5 c 128,-1,30
 198.229 590 198.229 590 219.435 594 c 128,-1,31
 240.64 598 240.64 598 259.053 589 c 128,-1,32
 277.466 580 277.466 580 283.764 559 c 1,33,-1
 240.236 539 l 1,17,18
EndSplineSet
EndChar

StartChar: exclamdown
Encoding: 161 161 98
Width: 238
GlyphClass: 2
Flags: W
LayerCount: 2
Fore
SplineSet
12.9023 1 m 1,0,-1
 84.6631 442 l 1,3,-1
 175.663 442 l 1,2,-1
 102.902 1 l 1,1,-1
 12.9023 1 l 1,0,-1
104.518 634 m 0,4,5
 109.455 662 109.455 662 130.276 678 c 128,-1,13
 151.098 694 151.098 694 173.098 694 c 128,-1,12
 195.098 694 195.098 694 210.188 677.5 c 128,-1,11
 225.278 661 225.278 661 220.165 632 c 0,9,10
 215.404 605 215.404 605 194.76 590 c 128,-1,8
 174.114 575 174.114 575 152.202 575.5 c 128,-1,7
 130.291 576 130.291 576 115.023 591.5 c 128,-1,6
 99.7568 607 99.7568 607 104.518 634 c 0,4,5
EndSplineSet
EndChar

StartChar: yen
Encoding: 165 165 99
Width: 604
GlyphClass: 2
Flags: W
LayerCount: 2
Fore
SplineSet
22.2559 200 m 1,0,-1
 523.256 200 l 1,1,-1
 505.739 112 l 1,2,-1
 4.73926 112 l 1,3,-1
 22.2559 200 l 1,0,-1
50.9951 380 m 1,4,-1
 551.995 380 l 1,5,-1
 538.479 292 l 1,6,-1
 37.4785 292 l 1,7,-1
 50.9951 380 l 1,4,-1
77.0088 692 m 1,8,-1
 183.009 692 l 1,9,-1
 316.695 418 l 1,10,-1
 543.009 692 l 1,11,-1
 649.009 692 l 1,12,-1
 351.884 334 l 1,13,-1
 293.52 3 l 1,14,-1
 186.991 0 l 1,15,-1
 252.179 330 l 1,16,-1
 253.179 330 l 1,17,-1
 77.0088 692 l 1,8,-1
EndSplineSet
EndChar

StartChar: dieresis
Encoding: 168 168 100
Width: 713
GlyphClass: 2
Flags: W
LayerCount: 2
Fore
SplineSet
160.529 805 m 4,0,1
 165.29 832 165.29 832 186.111 848 c 132,-1,2
 206.933 864 206.933 864 228.933 864 c 132,-1,3
 250.933 864 250.933 864 266.287 849 c 132,-1,4
 281.643 834 281.643 834 276.882 807 c 4,5,6
 271.769 778 271.769 778 250.858 761.5 c 132,-1,7
 229.949 745 229.949 745 207.949 745 c 132,-1,8
 185.949 745 185.949 745 170.771 761 c 132,-1,9
 155.592 777 155.592 777 160.529 805 c 4,0,1
407.647 800 m 4,10,11
 412.408 827 412.408 827 433.229 843 c 132,-1,12
 454.051 859 454.051 859 476.051 859 c 132,-1,13
 498.051 859 498.051 859 513.406 844 c 132,-1,14
 528.761 829 528.761 829 524 802 c 4,15,16
 518.887 773 518.887 773 497.978 756.5 c 132,-1,17
 477.067 740 477.067 740 455.067 740 c 132,-1,18
 433.067 740 433.067 740 417.889 756 c 132,-1,19
 402.71 772 402.71 772 407.647 800 c 4,10,11
EndSplineSet
EndChar

StartChar: guillemotleft
Encoding: 171 171 101
Width: 605
GlyphClass: 2
Flags: W
LayerCount: 2
Fore
SplineSet
469.391 428 m 5,0,-1
 454.051 341 l 5,1,-1
 366.705 288 l 5,2,-1
 434.302 229 l 5,3,-1
 419.256 138 l 5,4,-1
 241.882 289 l 5,5,-1
 469.391 428 l 5,0,-1
262.744 430 m 5,6,-1
 247.58 344 l 5,7,-1
 160.058 290 l 5,8,-1
 227.831 232 l 5,9,-1
 212.609 140 l 5,10,-1
 34.4102 292 l 5,11,-1
 262.744 430 l 5,6,-1
EndSplineSet
EndChar

StartChar: degree
Encoding: 176 176 102
Width: 560
GlyphClass: 2
Flags: W
LayerCount: 2
Fore
SplineSet
256.691 802 m 4,0,1
 253.87 786 253.87 786 264.725 779.5 c 132,-1,2
 275.578 773 275.578 773 289.225 779.5 c 132,-1,3
 302.87 786 302.87 786 305.868 803 c 4,4,5
 308.513 818 308.513 818 297.159 824.5 c 132,-1,6
 285.805 831 285.805 831 272.571 824 c 132,-1,7
 259.337 817 259.337 817 256.691 802 c 4,0,1
210.516 801 m 4,8,9
 216.158 833 216.158 833 241.243 850.5 c 132,-1,10
 266.329 868 266.329 868 291.977 866 c 132,-1,11
 317.624 864 317.624 864 336.45 846 c 132,-1,12
 355.276 828 355.276 828 350.163 799 c 4,13,14
 344.696 768 344.696 768 319.435 749.5 c 132,-1,15
 294.173 731 294.173 731 267.996 730 c 132,-1,16
 241.819 729 241.819 729 223.17 748 c 132,-1,17
 204.521 767 204.521 767 210.516 801 c 4,8,9
EndSplineSet
EndChar

StartChar: plusminus
Encoding: 177 177 103
Width: 495
GlyphClass: 2
Flags: W
LayerCount: 2
Fore
SplineSet
390.865 127 m 1,0,-1
 2.86523 127 l 1,1,-1
 18.7344 217 l 1,2,-1
 406.911 218 l 1,3,-1
 390.865 127 l 1,0,-1
439.051 474 m 1,4,-1
 302.874 473 l 1,5,-1
 276.544 318 l 1,6,-1
 185.544 318 l 1,7,-1
 212.874 473 l 1,8,-1
 71.6982 472 l 1,9,-1
 87.5674 562 l 1,10,-1
 230.391 561 l 1,11,-1
 253.135 707 l 1,12,-1
 343.135 707 l 1,13,-1
 317.744 563 l 1,14,-1
 454.92 564 l 1,15,-1
 439.051 474 l 1,4,-1
EndSplineSet
EndChar

StartChar: uni00B2
Encoding: 178 178 104
Width: 402
GlyphClass: 2
Flags: W
LayerCount: 2
Fore
SplineSet
120.049 525 m 1,0,-1
 306.961 723 l 2,1,2
 340.015 763 340.015 763 340.48 794 c 128,-1,3
 340.946 825 340.946 825 308.357 833 c 0,4,5
 292.062 837 292.062 837 268.976 828 c 128,-1,6
 245.889 819 245.889 819 235.186 798 c 1,7,-1
 200.594 823 l 1,8,9
 236.292 878 236.292 878 305.939 876 c 0,10,11
 355.763 875 355.763 875 376.09 848.5 c 128,-1,12
 396.418 822 396.418 822 383.159 778 c 128,-1,13
 369.9 734 369.9 734 326.261 685 c 2,14,-1
 219.983 570 l 1,15,-1
 357.159 571 l 1,16,-1
 349.049 525 l 1,17,-1
 170.049 525 l 1,18,-1
 120.049 525 l 1,0,-1
EndSplineSet
EndChar

StartChar: uni00B3
Encoding: 179 179 105
Width: 382
GlyphClass: 2
Flags: W
LayerCount: 2
Fore
SplineSet
274.911 730 m 1,0,1
 298.616 734 298.616 734 314.112 759.5 c 128,-1,2
 329.608 785 329.608 785 322.488 807 c 0,3,4
 316.015 827 316.015 827 290.072 833 c 0,5,6
 271.778 837 271.778 837 249.896 832 c 128,-1,7
 228.015 827 228.015 827 214.841 809 c 1,8,-1
 181.072 833 l 1,9,10
 219.654 876 219.654 876 290.302 874 c 0,11,12
 322.302 874 322.302 874 343.569 858.5 c 128,-1,13
 364.836 843 364.836 843 370.368 820.5 c 128,-1,14
 375.901 798 375.901 798 365.964 770 c 128,-1,15
 356.026 742 356.026 742 329.972 719 c 1,16,17
 356.152 686 356.152 686 357.217 649.5 c 128,-1,18
 358.28 613 358.28 613 339.344 585 c 128,-1,19
 320.406 557 320.406 557 287.556 538 c 128,-1,20
 254.706 519 254.706 519 217.706 519 c 0,21,22
 163.354 517 163.354 517 115.29 545 c 1,23,-1
 150.285 579 l 1,24,25
 166.875 571 166.875 571 181.17 567 c 128,-1,26
 195.464 563 195.464 563 205.464 563 c 128,-1,27
 215.464 563 215.464 563 227.464 563 c 0,28,29
 263.464 563 263.464 563 286.725 590 c 128,-1,30
 309.986 617 309.986 617 306.952 648 c 128,-1,31
 303.918 679 303.918 679 272.857 690 c 1,32,-1
 227.034 691 l 1,33,-1
 232.734 729 l 1,34,-1
 274.911 730 l 1,0,1
EndSplineSet
EndChar

StartChar: acute
Encoding: 180 180 106
Width: 1000
GlyphClass: 2
Flags: W
LayerCount: 2
Fore
SplineSet
441.104 985 m 1,0,-1
 490.231 912 l 1,1,-1
 316.896 791 l 1,2,-1
 275.184 838 l 1,3,-1
 441.104 985 l 1,0,-1
EndSplineSet
EndChar

StartChar: uni00B9
Encoding: 185 185 107
Width: 284
GlyphClass: 2
Flags: W
LayerCount: 2
Fore
SplineSet
187.4 786 m 1,0,-1
 171.933 772 l 1,1,-1
 145.869 800 l 1,2,-1
 223.979 863 l 1,3,-1
 253.739 890 l 1,4,-1
 244.512 832 l 1,5,-1
 244.512 832 l 1,6,-1
 198.138 569 l 1,7,-1
 199.138 569 l 1,8,-1
 192.261 530 l 1,9,-1
 143.261 530 l 1,10,-1
 150.138 569 l 1,11,-1
 187.4 786 l 1,0,-1
EndSplineSet
EndChar

StartChar: guillemotright
Encoding: 187 187 108
Width: 605
GlyphClass: 2
Flags: W
LayerCount: 2
Fore
SplineSet
59.3906 428 m 1,0,-1
 237.882 289 l 1,5,-1
 7.25586 138 l 1,4,-1
 24.3018 229 l 1,3,-1
 112.705 288 l 1,2,-1
 44.0508 341 l 1,1,-1
 59.3906 428 l 1,0,-1
266.744 430 m 5,6,-1
 446.41 292 l 1,11,-1
 214.609 140 l 1,10,-1
 231.831 232 l 1,9,-1
 320.058 290 l 1,8,-1
 251.58 344 l 1,7,-1
 266.744 430 l 5,6,-1
EndSplineSet
EndChar

StartChar: questiondown
Encoding: 191 191 109
Width: 548
GlyphClass: 2
Flags: W
LayerCount: 2
Fore
SplineSet
247.454 77 m 0,0,1
 278.454 77 278.454 77 302.13 86.5 c 128,-1,2
 325.805 96 325.805 96 339.773 110 c 128,-1,3
 353.742 124 353.742 124 371.563 140 c 1,4,-1
 401.396 71 l 1,5,6
 363.049 35 363.049 35 319.963 17.5 c 128,-1,7
 276.877 0 276.877 0 220.877 0 c 0,8,9
 131.877 0 131.877 0 88.1934 50 c 128,-1,10
 44.5098 100 44.5098 100 58.9688 182 c 0,11,12
 66.1982 223 66.1982 223 90.458 258.5 c 128,-1,13
 114.718 294 114.718 294 163.123 336 c 2,14,-1
 212.882 380 l 2,15,16
 256.935 420 256.935 420 267.05 440.5 c 128,-1,17
 277.164 461 277.164 461 286.333 513 c 2,18,-1
 291.331 530 l 1,19,-1
 389.212 535 l 1,20,-1
 382.394 502 l 2,21,22
 372.167 444 372.167 444 350.348 411 c 128,-1,23
 328.529 378 328.529 378 283.652 339 c 2,24,-1
 232.541 293 l 2,25,26
 222.954 284 222.954 284 212.544 276 c 128,-1,27
 202.133 268 202.133 268 192.281 257.5 c 128,-1,28
 182.43 247 182.43 247 174.167 237 c 128,-1,29
 165.903 227 165.903 227 159.876 215.5 c 128,-1,30
 153.848 204 153.848 204 152.732 192 c 0,31,32
 135.454 77 135.454 77 247.454 77 c 0,0,1
425.543 690 m 0,33,34
 420.782 663 420.782 663 400.049 647.5 c 128,-1,35
 379.316 632 379.316 632 357.228 631.5 c 128,-1,36
 335.14 631 335.14 631 319.784 646 c 128,-1,37
 304.43 661 304.43 661 309.19 688 c 0,38,39
 314.304 717 314.304 717 335.213 733.5 c 128,-1,40
 356.123 750 356.123 750 378.123 750 c 128,-1,41
 400.123 750 400.123 750 415.302 734 c 128,-1,42
 430.48 718 430.48 718 425.543 690 c 0,33,34
EndSplineSet
EndChar

StartChar: Odieresis
Encoding: 214 214 127
Width: 812
GlyphClass: 2
Flags: W
LayerCount: 2
Fore
SplineSet
321.562 -3 m 0
EndSplineSet
Refer: 50 79 N 1 0 0 1 0 0 2
Refer: 100 168 S 1 0 0 1 96 0 2
EndChar

StartChar: multiply
Encoding: 215 215 128
Width: 495
GlyphClass: 2
Flags: W
LayerCount: 2
Fore
SplineSet
422.809 457 m 1,0,-1
 309.705 360 l 1,1,-1
 400.485 251 l 1,2,-1
 325.201 187 l 1,3,-1
 234.42 296 l 1,4,-1
 118.788 196 l 1,5,-1
 66.0723 260 l 1,6,-1
 184.882 361 l 1,7,-1
 97.5146 461 l 1,8,-1
 172.799 525 l 1,9,-1
 256.813 423 l 1,10,-1
 370.094 521 l 1,11,-1
 422.809 457 l 1,0,-1
EndSplineSet
EndChar

StartChar: germandbls
Encoding: 223 223 130
Width: 517
GlyphClass: 2
Flags: W
LayerCount: 2
Fore
SplineSet
69.3438 0 m 5,0,-1
 32.3438 0 l 1,47,-1
 32.5195 1 l 1,46,-1
 -16.6562 0 l 1,45,-1
 104.656 688 l 1,44,-1
 304.656 688 l 1,43,-1
 307.304 686 l 1,42,-1
 352.48 687 352.48 687 385.395 669.5 c 128,-1,41
 418.309 652 418.309 652 433.871 624 c 128,-1,40
 449.435 596 449.435 596 451.675 560.5 c 128,-1,39
 453.915 525 453.915 525 442.597 492 c 128,-1,38
 431.277 459 431.277 459 404.664 430 c 128,-1,37
 378.051 401 378.051 401 340.405 386 c 1,35,36
 339.405 386 339.405 386 339.142 384.5 c 128,-1,34
 338.877 383 338.877 383 339.877 383 c 0,32,33
 385.524 381 385.524 381 413.822 351.5 c 128,-1,31
 442.121 322 442.121 322 449.039 279 c 128,-1,30
 455.957 236 455.957 236 443.729 186.5 c 128,-1,29
 431.5 137 431.5 137 402.595 95 c 128,-1,28
 373.688 53 373.688 53 322.928 26 c 128,-1,27
 272.167 -1 272.167 -1 210.52 1 c 2,25,26
 200.344 0 l 1,24,-1
 108.344 0 l 1,23,-1
 125.095 95 l 1,22,-1
 240.095 95 l 2,21,-1
 279.095 95 279.095 95 308.326 119 c 128,-1,20
 337.559 143 337.559 143 347.729 178 c 128,-1,19
 357.901 213 357.901 213 355.484 247.5 c 128,-1,18
 353.067 282 353.067 282 330.476 307 c 128,-1,17
 307.884 332 307.884 332 271.061 333 c 1,15,16
 271.236 334 l 1,14,-1
 167.236 334 l 1,13,-1
 179.58 404 l 1,12,-1
 193.58 404 193.58 404 222.344 405.5 c 128,-1,11
 251.108 407 251.108 407 254.108 407 c 0,9,10
 290.99 412 290.99 412 317.958 434.5 c 128,-1,8
 344.925 457 344.925 457 354.127 486.5 c 128,-1,7
 363.328 516 363.328 516 360.441 545 c 128,-1,6
 357.556 574 357.556 574 335.082 594 c 128,-1,5
 312.608 614 312.608 614 275.784 615 c 1,3,4
 275.961 616 l 1,2,-1
 178.961 616 l 1,1,-1
 69.3438 0 l 5,0,-1
  Spiro
    32.3435 0 v
    32.5198 1 v
    -16.6565 0 v
    104.656 688 v
    304.656 688 v
    307.304 686 v
    349.415 682.375 o
    385.394 669.5 o
    413.971 649.375 o
    433.872 624 o
    446.104 594.125 o
    451.675 560.5 o
    450.525 525.625 o
    442.596 492 o
    427.454 460 o
    404.664 430 o
    375.293 404.5 o
    340.406 386 v
    339.59 385.625 o
    339.141 384.5 o
    339.193 383.375 o
    339.877 383 o
    381.187 374.125 o
    413.822 351.5 o
    436.776 318.625 o
    449.039 279 o
    451.17 234.375 o
    443.729 186.5 o
    427.331 138.875 o
    402.595 95 o
    368.225 56.75 o
    322.928 26 o
    269.446 6.25 o
    210.52 1 [
    200.344 0 v
    108.344 0 v
    125.095 95 v
    240.095 95 ]
    276.653 101 o
    308.326 119 o
    332.793 145.75 o
    347.73 178 o
    354.754 212.875 o
    355.484 247.5 o
    348.024 279.625 o
    330.476 307 o
    304.326 326 o
    271.06 333 v
    271.237 334 v
    167.237 334 v
    179.58 404 v
    197.271 404.375 o
    222.344 405.5 o
    244.667 406.625 o
    254.109 407 o
    288.512 416.375 o
    317.958 434.5 o
    340.484 458.75 o
    354.127 486.5 o
    360.306 515.875 o
    360.442 545 o
    352.658 571.75 o
    335.082 594 o
    309.021 609.25 o
    275.785 615 v
    275.961 616 v
    178.961 616 v
    69.3435 0 v
    0 0 z
  EndSpiro
EndSplineSet
EndChar

StartChar: dotlessi
Encoding: 305 305 165
Width: 207
GlyphClass: 2
Flags: W
LayerCount: 2
Fore
SplineSet
97.3516 433 m 1,0,-1
 189.352 433 l 1,1,-1
 112.648 -2 l 1,2,-1
 22.6484 -2 l 1,3,-1
 97.3516 433 l 1,0,-1
EndSplineSet
EndChar

StartChar: jcircumflex
Encoding: 309 309 167
Width: 207
GlyphClass: 2
Flags: W
LayerCount: 2
Fore
SplineSet
82.1865 430 m 1,10,-1
 174.187 430 l 1,11,-1
 79.3809 -102 l 1,12,-1
 -11.6191 -102 l 1,13,-1
 82.1865 430 l 1,10,-1
EndSplineSet
Refer: 65 94 S 1 0 0 1 -151.171 -35 2
EndChar

StartChar: uni030A
Encoding: 778 778 174
Width: 154
GlyphClass: 2
Flags: W
LayerCount: 2
Fore
SplineSet
52.6436 791 m 256,0,1
 49.8223 775 49.8223 775 60.6768 768.5 c 128,-1,2
 71.5303 762 71.5303 762 85.2646 769 c 128,-1,3
 98.999 776 98.999 776 101.82 792 c 0,4,5
 104.465 807 104.465 807 93.1113 813.5 c 128,-1,6
 81.7568 820 81.7568 820 68.6113 813.5 c 128,-1,7
 55.4648 807 55.4648 807 52.6436 791 c 256,0,1
6.46777 790 m 0,8,9
 12.2861 823 12.2861 823 37.2842 840 c 128,-1,10
 62.2812 857 62.2812 857 87.9287 855 c 128,-1,11
 113.576 853 113.576 853 132.402 835 c 128,-1,12
 151.229 817 151.229 817 146.115 788 c 0,13,14
 140.648 757 140.648 757 115.387 738.5 c 128,-1,15
 90.125 720 90.125 720 64.0361 719.5 c 128,-1,16
 37.9482 719 37.9482 719 19.21 737.5 c 128,-1,17
 0.472656 756 0.472656 756 6.46777 790 c 0,8,9
EndSplineSet
EndChar

StartChar: Delta
Encoding: 916 916 175
Width: 674
GlyphClass: 2
Flags: W
LayerCount: 2
Fore
SplineSet
393.447 731 m 1,0,-1
 418.226 639 l 1,1,-1
 588.729 1 l 1,2,-1
 493.729 1 l 1,3,-1
 407.553 0 l 1,4,-1
 132.553 0 l 1,5,-1
 51.7285 1 l 1,6,-1
 -43.2715 1 l 1,7,-1
 350.223 656 l 1,8,-1
 393.447 731 l 1,0,-1
475.012 82 m 1,9,-1
 356.185 514 l 1,10,-1
 106.012 82 l 1,11,-1
 475.012 82 l 1,9,-1
EndSplineSet
EndChar

StartChar: beta
Encoding: 946 946 176
Width: 517
GlyphClass: 2
Flags: W
LayerCount: 2
Fore
SplineSet
58.7637 -120 m 5,0,-1
 21.7637 -120 l 1,47,-1
 21.9404 -119 l 1,46,-1
 -27.2363 -120 l 1,45,-1
 115.236 688 l 1,44,-1
 315.236 688 l 1,43,-1
 317.884 686 l 1,42,-1
 363.06 687 363.06 687 395.974 669.5 c 128,-1,41
 428.889 652 428.889 652 444.451 624 c 128,-1,40
 460.014 596 460.014 596 462.254 560.5 c 128,-1,39
 464.495 525 464.495 525 453.176 492 c 128,-1,38
 441.857 459 441.857 459 415.244 430 c 128,-1,37
 388.63 401 388.63 401 350.985 386 c 1,35,36
 349.985 386 349.985 386 349.721 384.5 c 128,-1,34
 349.456 383 349.456 383 350.456 383 c 0,32,33
 396.104 381 396.104 381 424.402 351.5 c 128,-1,31
 452.7 322 452.7 322 459.618 279 c 128,-1,30
 466.536 236 466.536 236 454.309 186.5 c 128,-1,29
 442.08 137 442.08 137 413.174 95 c 128,-1,28
 384.269 53 384.269 53 333.508 26 c 128,-1,27
 282.747 -1 282.747 -1 221.1 1 c 2,25,26
 210.923 0 l 1,24,-1
 118.923 0 l 1,23,-1
 135.674 95 l 1,22,-1
 250.674 95 l 2,21,-1
 289.674 95 289.674 95 318.906 119 c 128,-1,20
 348.138 143 348.138 143 358.31 178 c 128,-1,19
 368.48 213 368.48 213 366.064 247.5 c 128,-1,18
 363.647 282 363.647 282 341.056 307 c 128,-1,17
 318.464 332 318.464 332 281.64 333 c 1,15,16
 281.816 334 l 1,14,-1
 177.816 334 l 1,13,-1
 190.159 404 l 1,12,-1
 204.159 404 204.159 404 232.924 405.5 c 128,-1,11
 261.688 407 261.688 407 264.688 407 c 0,9,10
 301.57 412 301.57 412 328.537 434.5 c 128,-1,8
 355.505 457 355.505 457 364.706 486.5 c 128,-1,7
 373.908 516 373.908 516 371.021 545 c 128,-1,6
 368.135 574 368.135 574 345.661 594 c 128,-1,5
 323.188 614 323.188 614 286.364 615 c 1,3,4
 286.541 616 l 1,2,-1
 189.541 616 l 1,1,-1
 58.7637 -120 l 5,0,-1
EndSplineSet
EndChar

StartChar: quoteleft
Encoding: 8216 8216 177
Width: 187
GlyphClass: 2
Flags: W
LayerCount: 2
Fore
SplineSet
120.628 620 m 1,0,1
 120.278 601 120.278 601 105.222 586.5 c 128,-1,2
 90.1641 572 90.1641 572 73.3711 567.5 c 128,-1,3
 56.5771 563 56.5771 563 43.6934 575 c 128,-1,4
 30.8096 587 30.8096 587 32.9229 616 c 0,5,6
 37.8574 661 37.8574 661 69.0576 699 c 128,-1,7
 100.259 737 100.259 737 128.846 746 c 1,8,9
 115.024 730 115.024 730 107.677 694 c 128,-1,10
 100.328 658 100.328 658 110.036 645 c 1,11,12
 123.097 634 123.097 634 120.628 620 c 1,0,1
EndSplineSet
EndChar

StartChar: quoteright
Encoding: 8217 8217 178
Width: 187
GlyphClass: 2
Flags: W
LayerCount: 2
Fore
SplineSet
61.8779 682 m 0,0,1
 61.2275 701 61.2275 701 74.9609 716.5 c 128,-1,2
 88.6943 732 88.6943 732 105.164 737.5 c 128,-1,3
 121.634 743 121.634 743 135.694 732 c 128,-1,4
 149.754 721 149.754 721 149.817 693 c 0,5,6
 148.059 649 148.059 649 119.506 609 c 128,-1,7
 90.9521 569 90.9521 569 64.0127 558 c 1,8,9
 75.834 574 75.834 574 80.3584 611 c 128,-1,10
 84.8828 648 84.8828 648 73.6455 658 c 0,11,12
 60.4092 668 60.4092 668 61.8779 682 c 0,0,1
EndSplineSet
EndChar

StartChar: quotedblleft
Encoding: 8220 8220 179
Width: 292
GlyphClass: 2
Flags: W
LayerCount: 2
Fore
SplineSet
243.805 622 m 0,0,1
 242.631 604 242.631 604 227.985 589 c 128,-1,2
 213.341 574 213.341 574 196.136 570 c 128,-1,3
 178.931 566 178.931 566 166.046 578 c 128,-1,4
 153.162 590 153.162 590 155.1 618 c 0,5,6
 161.034 663 161.034 663 191.734 701 c 128,-1,7
 222.435 739 222.435 739 251.021 748 c 1,8,9
 237.377 733 237.377 733 230.44 696.5 c 128,-1,10
 223.505 660 223.505 660 232.389 648 c 1,11,12
 245.449 637 245.449 637 243.805 622 c 0,0,1
120.452 620 m 1,13,14
 120.102 601 120.102 601 105.045 586.5 c 128,-1,15
 89.9883 572 89.9883 572 73.1943 567.5 c 128,-1,16
 56.4014 563 56.4014 563 43.5176 575 c 128,-1,17
 30.6328 587 30.6328 587 32.7461 616 c 0,18,19
 37.6816 661 37.6816 661 68.8818 699 c 128,-1,20
 100.082 737 100.082 737 128.669 746 c 1,21,22
 114.848 730 114.848 730 107.5 694 c 128,-1,23
 100.152 658 100.152 658 109.86 645 c 1,24,25
 122.921 634 122.921 634 120.452 620 c 1,13,14
EndSplineSet
EndChar

StartChar: quotedblright
Encoding: 8221 8221 180
Width: 358
GlyphClass: 2
Flags: W
LayerCount: 2
Fore
SplineSet
197.205 685 m 1,0,1
 196.38 703 196.38 703 210.201 719 c 128,-1,2
 224.021 735 224.021 735 240.403 740 c 128,-1,3
 256.785 745 256.785 745 270.934 734.5 c 128,-1,4
 285.082 724 285.082 724 285.146 696 c 0,5,6
 283.211 651 283.211 651 254.745 611.5 c 128,-1,7
 226.28 572 226.28 572 199.165 560 c 1,8,9
 210.986 576 210.986 576 215.51 613 c 128,-1,10
 220.034 650 220.034 650 208.974 661 c 0,11,12
 195.737 671 195.737 671 197.205 685 c 1,0,1
61.6768 682 m 0,13,14
 61.0264 701 61.0264 701 74.7598 716.5 c 128,-1,15
 88.4932 732 88.4932 732 104.963 737.5 c 128,-1,16
 121.433 743 121.433 743 135.493 732 c 128,-1,17
 149.554 721 149.554 721 149.616 693 c 0,18,19
 147.857 649 147.857 649 119.305 609 c 128,-1,20
 90.752 569 90.752 569 63.8125 558 c 1,21,22
 75.6328 574 75.6328 574 80.1572 611 c 128,-1,23
 84.6816 648 84.6816 648 73.4443 658 c 0,24,25
 60.208 668 60.208 668 61.6768 682 c 0,13,14
EndSplineSet
EndChar

StartChar: Euro
Encoding: 8364 8364 182
Width: 715
Flags: W
LayerCount: 2
Fore
SplineSet
560.381 293 m 1,0,-1
 515.922 211 l 1,1,-1
 1.92188 211 l 1,2,-1
 46.3809 293 l 1,3,-1
 560.381 293 l 1,0,-1
640.945 455 m 1,4,-1
 594.84 375 l 1,5,-1
 36.8398 375 l 1,6,-1
 76.9453 455 l 1,7,-1
 640.945 455 l 1,4,-1
731.742 641 m 0,10,11
 688.931 557 l 1,14,15
 681.509 578.065 681.509 578.065 637.984 597 c 0,16,17
 604.241 611.679 604.241 611.679 541.981 614 c 0,18,19
 461.511 617 461.511 617 376.635 569.5 c 128,-1,20
 291.76 522 291.76 522 242.183 445 c 0,21,22
 176.021 342 176.021 342 196.064 243 c 128,-1,23
 216.108 144 216.108 144 311.645 96 c 0,24,25
 358.412 72 358.412 72 414.236 71 c 128,-1,26
 470.06 70 470.06 70 522.733 88 c 128,-1,27
 575.407 106 575.407 106 627.402 140 c 1,28,-1
 609.946 41 l 1,29,30
 558.894 1 558.894 1 526.747 -5.5 c 128,-1,31
 494.601 -12 494.601 -12 435.983 -15.5 c 128,-1,32
 377.367 -19 377.367 -19 327.189 -11.5 c 128,-1,33
 277.012 -4 277.012 -4 247.009 13 c 0,34,35
 120.705 85 120.705 85 97.3623 213.5 c 128,-1,36
 74.0205 342 74.0205 342 164.883 483 c 0,37,38
 232.397 588 232.397 588 339.712 646.5 c 128,-1,40
 446.83 704.893 446.83 704.893 558.146 700 c 0,8,9
 615.516 697.771 615.516 697.771 680.268 669.5 c 4,0,0
 715.123 654.5 715.123 654.5 731.742 641 c 0,10,11
EndSplineSet
EndChar

StartChar: brokenbar
Encoding: 166 166 187
Width: 207
Flags: W
LayerCount: 2
Fore
SplineSet
57.1816 315 m 1,0,-1
 141.182 315 l 1,1,-1
 88.6387 0 l 1,2,-1
 1.63867 0 l 1,3,-1
 57.1816 315 l 1,0,-1
125.361 696 m 5,4,-1
 209.361 696 l 1,5,-1
 153.877 387 l 1,6,-1
 69.877 387 l 5,7,-1
 125.361 696 l 5,4,-1
EndSplineSet
EndChar

